<svg xmlns="http://www.w3.org/2000/svg" fill="none" viewBox="0 0 1600 2400" height="2400" width="1600">
<path style="fill:white;fill-opacity:1;" fill="white" d="M457.235 1844.67H800.342V2169.11H479.973C452.433 2130.63 453.549 2038.73 452.433 1987.86V1849.48L457.235 1844.67Z"></path>
<path style="fill:white;fill-opacity:1;" fill="white" d="M1142.65 1844.67H799.539V2169.11H1119.91C1147.45 2130.63 1146.33 2038.73 1147.45 1987.86V1849.48L1142.65 1844.67Z"></path>
<path style="fill:#E2DED4;fill:color(display-p3 0.8880 0.8693 0.8320);fill-opacity:1;" fill="#E2DED4" d="M1164.8 1436.91C1169.05 1425.93 1166.57 1423.77 1164.8 1424.07L1155.5 1450.19C1158.69 1449.13 1163.03 1440.89 1164.8 1436.91Z"></path>
<path style="fill:white;fill-opacity:1;" fill="white" d="M428.082 1405.89L435.166 1408.99L436.494 1405L433.395 1400.57L425.426 1396.59L424.54 1400.57L428.082 1405.89Z"></path>
<path style="fill:white;fill-opacity:1;" fill="white" d="M1171.7 1405.89L1164.62 1408.99L1163.29 1405L1166.39 1400.57L1174.36 1396.59L1175.24 1400.57L1171.7 1405.89Z"></path>
<path style="fill:white;fill-opacity:1;" fill="white" d="M436.494 1428.91C434.369 1422.89 435.608 1397.18 436.494 1385.08L433.838 1392.61C432.804 1390.98 429.764 1384.55 425.868 1371.8C421.972 1359.04 436.641 1343.16 444.463 1336.82L522.828 1297.85C539.121 1286.87 551.163 1298.89 555.148 1306.26L585.254 1353.2C591.275 1358.51 595.732 1370.47 597.208 1375.78C592.603 1380.74 593.814 1387.29 594.994 1389.95L608.719 1415.19C616.865 1448.48 610.047 1462.42 605.62 1465.22L586.582 1472.75C582.332 1476.64 578.023 1476.73 576.399 1476.29L571.972 1472.75L576.399 1465.22L581.712 1461.68L598.536 1453.71L604.292 1456.81C611.818 1437.32 599.864 1408.99 598.536 1404.56C597.474 1401.02 593.666 1400.13 591.895 1400.13L565.773 1413.86C565.331 1409.58 564.268 1401.99 563.56 1405.89C562.851 1409.78 557.657 1416.96 555.148 1420.06C552.886 1421.19 541.423 1430.24 532.568 1427.14L534.35 1429.67C535.719 1430.26 536.912 1430.83 535.667 1431.54C532.861 1433.13 530.686 1434.23 529.912 1434.23C527.432 1434.23 528.288 1421.24 526.813 1417.4C526.37 1415.92 525.396 1415.81 525.042 1427.14C524.687 1438.48 511.612 1445.74 505.118 1447.95L483.424 1456.81C467.131 1463.18 454.203 1459.46 449.776 1456.81C446.234 1450.02 438.619 1434.93 436.494 1428.91Z"></path>
<path style="fill:white;fill-opacity:1;" fill="white" d="M1163.29 1428.91C1165.41 1422.89 1164.17 1397.18 1163.29 1385.08L1165.94 1392.61C1166.98 1390.98 1170.02 1384.55 1173.91 1371.8C1177.81 1359.04 1163.14 1343.16 1155.32 1336.82L1076.95 1297.85C1060.66 1286.87 1048.62 1298.89 1044.63 1306.26L1014.53 1353.2C1008.51 1358.51 1004.05 1370.47 1002.57 1375.78C1007.18 1380.74 1005.97 1387.29 1004.79 1389.95L991.062 1415.19C982.916 1448.48 989.734 1462.42 994.162 1465.22L1013.2 1472.75C1017.45 1476.64 1021.76 1476.73 1023.38 1476.29L1027.81 1472.75L1023.38 1465.22L1018.07 1461.68L1001.25 1453.71L995.49 1456.81C987.963 1437.32 999.917 1408.99 1001.25 1404.56C1002.31 1401.02 1006.12 1400.13 1007.89 1400.13L1034.01 1413.86C1034.45 1409.58 1035.51 1401.99 1036.22 1405.89C1036.93 1409.78 1042.12 1416.96 1044.63 1420.06C1046.9 1421.19 1058.36 1430.24 1067.21 1427.14L1065.43 1429.67C1064.06 1430.26 1062.87 1430.83 1064.11 1431.54C1066.92 1433.13 1069.1 1434.23 1069.87 1434.23C1072.35 1434.23 1071.49 1421.24 1072.97 1417.4C1073.41 1415.92 1074.39 1415.81 1074.74 1427.14C1075.09 1438.48 1088.17 1445.74 1094.66 1447.95L1116.36 1456.81C1132.65 1463.18 1145.58 1459.46 1150.01 1456.81C1153.55 1450.02 1161.16 1434.93 1163.29 1428.91Z"></path>
<path style="fill:#E2DED4;fill:color(display-p3 0.8880 0.8693 0.8320);fill-opacity:1;" fill="#E2DED4" d="M435.166 1436.88C430.915 1425.9 433.395 1423.75 435.166 1424.04L444.463 1450.17C441.276 1449.1 436.937 1440.87 435.166 1436.88Z"></path>
<path style="fill:white;fill-opacity:1;" fill="white" d="M459.959 1268.19C459.959 1274.92 465.272 1275.42 467.928 1274.83V1323.98L475.455 1319.99C473.536 1310.99 473.418 1290.59 482.981 1282.8C492.545 1275.01 510.726 1269.22 519.286 1268.19V1103.92L489.18 1105.69C464.032 1106.75 459.959 1119.42 459.959 1138.9V1268.19Z"></path>
<path style="fill:white;fill-opacity:1;" fill="white" d="M1139.82 1268.19C1139.82 1274.92 1134.51 1275.42 1131.85 1274.83V1323.98L1124.33 1319.99C1126.25 1310.99 1126.36 1290.59 1116.8 1282.8C1107.24 1275.01 1089.06 1269.22 1080.5 1268.19V1103.92L1110.6 1105.69C1135.75 1106.75 1139.82 1119.42 1139.82 1138.9V1268.19Z"></path>
<path style="fill:white;fill-opacity:1;" fill="white" d="M579.941 1268.19C579.941 1274.92 574.628 1275.42 571.971 1274.83L571.529 1331.06L564.445 1319.99C566.364 1310.99 566.482 1290.59 556.919 1282.8C547.355 1275.01 527.403 1269.22 518.843 1268.19V1103.92L550.72 1105.69C579.941 1105.69 580.679 1128.27 579.941 1138.9V1268.19Z"></path>
<path style="fill:white;fill-opacity:1;" fill="white" d="M1019.84 1268.19C1019.84 1274.92 1025.15 1275.42 1027.81 1274.83L1028.25 1331.06L1035.34 1319.99C1033.42 1310.99 1033.3 1290.59 1042.86 1282.8C1052.43 1275.01 1072.38 1269.22 1080.94 1268.19V1103.92L1049.06 1105.69C1019.84 1105.69 1019.1 1128.27 1019.84 1138.9V1268.19Z"></path>
<path style="fill:white;fill-opacity:1;" fill="white" d="M582.077 658.526V866.754C582.077 870.362 582.077 872.166 580.953 873.287C579.83 874.408 578.021 874.408 574.405 874.408H574.405C579.498 874.408 583.04 875.893 583.483 878.549C583.778 925.04 584.192 1017.76 583.483 1016.69C582.775 1015.63 573.743 1012.71 569.316 1011.38H470.585C460.887 1011.87 457.211 1013.9 456.213 1015.75V1018.02C455.862 1017.42 455.752 1016.6 456.213 1015.75V883.42C456.213 877.262 458.323 874.979 460.344 874.39C458.273 874.336 457.052 874.125 456.213 873.287C455.089 872.166 455.089 870.362 455.089 866.754V658.526C455.089 656.563 455.089 655.581 455.112 654.751C455.996 622.234 482.208 596.081 514.799 595.199C515.631 595.176 516.615 595.176 518.583 595.176C520.55 595.176 521.534 595.176 522.366 595.199C554.958 596.081 581.17 622.234 582.054 654.751C582.077 655.581 582.077 656.563 582.077 658.526Z"></path>
<path style="fill:white;fill-opacity:1;" fill="white" d="M1143.47 658.526V866.754C1143.47 870.362 1143.47 872.166 1142.35 873.287C1141.22 874.408 1139.41 874.408 1135.8 874.408H1135.8C1140.89 874.408 1144.43 875.893 1144.88 878.549C1145.17 925.04 1145.58 1017.76 1144.88 1016.69C1144.17 1015.63 1135.14 1012.71 1130.71 1011.38H1031.98C1022.28 1011.87 1018.6 1013.9 1017.6 1015.75V1018.02C1017.25 1017.42 1017.14 1016.6 1017.6 1015.75V883.42C1017.6 877.262 1019.72 874.979 1021.74 874.39C1019.66 874.336 1018.44 874.125 1017.6 873.287C1016.48 872.166 1016.48 870.362 1016.48 866.754V658.526C1016.48 656.563 1016.48 655.581 1016.5 654.751C1017.39 622.234 1043.6 596.081 1076.19 595.199C1077.02 595.176 1078.01 595.176 1079.97 595.176C1081.94 595.176 1082.93 595.176 1083.76 595.199C1116.35 596.081 1142.56 622.234 1143.45 654.751C1143.47 655.581 1143.47 656.563 1143.47 658.526Z"></path>
<path style="fill:white;fill-opacity:1;" fill="white" d="M739.32 483.107C754.89 483.965 771.357 489.877 800.347 489.877L800.441 786.896H623.922V728.364L642.469 514.977C665.797 481.545 717.246 481.892 739.32 483.107Z"></path>
<path style="fill:white;fill-opacity:1;" fill="white" d="M860.66 483.107C845.09 483.965 828.623 489.877 799.633 489.877L799.539 786.896H976.058V728.364L957.511 514.977C934.183 481.545 882.733 481.892 860.66 483.107Z"></path>
<path style="fill:white;fill-opacity:1;" fill="white" d="M908.472 297.983C908.472 295.421 893.635 283.023 803.524 283.023L799.539 457.317C826.255 457.317 846.998 455.844 862.191 448.843C905.115 429.061 908.472 383.134 908.472 340.938V297.983Z"></path>
<path style="fill:white;fill-opacity:1;" fill="white" d="M692.397 297.983C692.397 295.421 718.283 283.466 808.394 283.466L801.329 457.317C774.613 457.317 753.87 455.844 738.677 448.842C695.754 429.061 692.397 383.134 692.397 340.937V297.983Z"></path>
<path style="fill:#525247;fill:color(display-p3 0.3215 0.3215 0.2785);fill-opacity:1;" fill="#525247" d="M783.601 282.138C725.159 282.492 698.743 292.912 692.839 298.078C694.965 271.511 764.563 267.822 799.097 269.298V290.993C790.95 290.639 785.372 284.942 783.601 282.138Z"></path>
<path style="fill:#525247;fill:color(display-p3 0.3215 0.3215 0.2785);fill-opacity:1;" fill="#525247" d="M815.921 282.138C874.362 282.492 900.779 292.912 906.682 298.078C904.557 271.511 833.188 267.822 798.654 269.298V290.993C806.8 290.639 814.15 284.942 815.921 282.138Z"></path>
<ellipse style="fill:white;fill-opacity:1;" fill="white" ry="5.31324" rx="8.85477" cy="283.466" cx="799.539"></ellipse>
<path style="fill:#E2DED4;fill:color(display-p3 0.8880 0.8693 0.8320);fill-opacity:1;" fill="#E2DED4" d="M459.073 1255.79C454.115 1258.98 454.498 1307.59 454.646 1331.5L468.371 1324.42C468.223 1307.89 467.751 1274.83 467.043 1274.83C466.157 1274.83 461.287 1272.17 460.844 1269.96C460.49 1268.19 459.516 1259.77 459.073 1255.79Z"></path>
<path style="fill:#E2DED4;fill:color(display-p3 0.8880 0.8693 0.8320);fill-opacity:1;" fill="#E2DED4" d="M1140.51 1255.79C1145.47 1258.98 1145.08 1307.59 1144.94 1331.5L1131.21 1324.42C1131.36 1307.89 1131.83 1274.83 1132.54 1274.83C1133.43 1274.83 1138.3 1272.17 1138.74 1269.96C1139.09 1268.19 1140.07 1259.77 1140.51 1255.79Z"></path>
<path style="fill:#E2DED4;fill:color(display-p3 0.8880 0.8693 0.8320);fill-opacity:1;" fill="#E2DED4" d="M580.385 1255.79C585.343 1258.98 586.14 1326.63 583.041 1348.77L571.086 1330.62C571.234 1314.09 571.707 1274.83 572.415 1274.83C573.301 1274.83 578.171 1272.17 578.613 1269.96C578.968 1268.19 579.942 1259.77 580.385 1255.79Z"></path>
<path style="fill:#E2DED4;fill:color(display-p3 0.8880 0.8693 0.8320);fill-opacity:1;" fill="#E2DED4" d="M1019.2 1255.79C1014.24 1258.98 1013.44 1326.63 1016.54 1348.77L1028.5 1330.62C1028.35 1314.09 1027.88 1274.83 1027.17 1274.83C1026.28 1274.83 1021.41 1272.17 1020.97 1269.96C1020.62 1268.19 1019.64 1259.77 1019.2 1255.79Z"></path>
<path style="fill:#E2DED4;fill:color(display-p3 0.8880 0.8693 0.8320);fill-opacity:1;" fill="#E2DED4" d="M754.38 454.375V476.957C755.797 479.082 786.257 480.794 801.31 481.384C807.332 481.384 833.63 478.433 846.027 476.957V454.375L812.379 457.032H789.799L754.38 454.375Z"></path>
<path style="fill:#E2DED4;fill:color(display-p3 0.8880 0.8693 0.8320);fill-opacity:1;" fill="#E2DED4" d="M510.874 591.634C504.853 593.405 493.017 598.866 487.852 601.375C549.481 576.934 584.811 624.399 583.483 659.82V694.356L615.36 685.501V563.739L603.849 565.51L510.874 591.634Z"></path>
<path style="fill:#E2DED4;fill:color(display-p3 0.8880 0.8693 0.8320);fill-opacity:1;" fill="#E2DED4" d="M1089.09 591.634C1095.11 593.405 1106.95 598.866 1112.11 601.375C1050.48 576.934 1015.15 624.399 1016.48 659.82V694.356L984.604 685.501V563.739L996.115 565.51L1089.09 591.634Z"></path>
<path style="fill:#E2DED4;fill:color(display-p3 0.8880 0.8693 0.8320);fill-opacity:1;" fill="#E2DED4" d="M755.266 915.299C738.973 916.007 736.375 924.449 737.113 928.582L737.113 1409.87H739.77V1607.79H743.754V1807.04H855.767V1607.79H860.195V1409.87H862.851V928.582C863.559 916.893 850.159 914.856 843.371 915.299H755.266Z"></path>
<path style="fill:#525247;fill:color(display-p3 0.3215 0.3215 0.2785);fill-opacity:1;" fill="#525247" d="M1005.86 1399.69C990.979 1411.02 991.245 1442.2 995.673 1456.81L1000.99 1453.27L1021.35 1463.01L1027.11 1470.53V1474.52L1031.98 1468.76V1455.48L1072.27 1476.73C1099.18 1489.48 1118.61 1474.67 1124.95 1465.66L1128.05 1466.55L1142.66 1463.89L1149.75 1457.69L1140.89 1459.91L1121.85 1459.02L1097.5 1449.72L1081.56 1440.42L1077.14 1435.55L1075.37 1427.58L1073.15 1423.6L1072.27 1435.55L1065.63 1431.57L1067.84 1427.58H1058.98C1053.38 1424.34 1041.81 1417.58 1040.39 1416.52C1038.97 1415.45 1036.55 1409.28 1035.52 1406.33L1034.63 1412.53L1005.86 1399.69Z"></path>
<path style="fill:#E2DED4;fill:color(display-p3 0.8880 0.8693 0.8320);fill-opacity:1;" fill="#E2DED4" d="M1055.44 1328.4C1058.98 1320.26 1056.92 1316.74 1055.44 1316.01C1056.86 1311.05 1062.23 1310.1 1064.74 1310.25L1156.39 1356.3C1172.33 1364.27 1165.68 1377.55 1164.36 1381.54C1163.29 1384.72 1159.19 1384.05 1157.27 1383.31L1098.39 1354.53C1089.53 1350.28 1085.84 1355.12 1085.11 1358.07C1086.17 1350.28 1082.3 1346.56 1080.24 1345.67C1063.94 1337.53 1056.92 1330.77 1055.44 1328.4Z"></path>
<path style="fill:#E2DED4;fill:color(display-p3 0.8880 0.8693 0.8320);fill-opacity:1;" fill="#E2DED4" d="M1049.24 1366.92C1050.79 1374.89 1041.27 1386.7 1035.96 1391.27C1028.88 1391.27 1031.24 1382.71 1033.31 1378.43C1037.73 1368.99 1047.12 1355.94 1049.24 1366.92Z"></path>
<path style="fill:#525247;fill:color(display-p3 0.3215 0.3215 0.2785);fill-opacity:1;" fill="#525247" d="M1174.1 1366.92C1174.1 1369.05 1167.9 1387.59 1164.8 1396.59V1401.46C1172.24 1393.67 1175.28 1396.44 1175.87 1398.8C1178.97 1394.08 1185.08 1382.16 1184.72 1372.24C1184.37 1362.32 1177.49 1364.56 1174.1 1366.92Z"></path>
<path style="fill:white;fill-opacity:1;" fill="white" d="M1179.41 1378.88L1173.65 1379.77L1171.44 1383.75L1172.77 1386.85H1178.52L1181.18 1382.86L1179.41 1378.88Z"></path>
<path style="fill:#E2DED4;fill:color(display-p3 0.8880 0.8693 0.8320);fill-opacity:1;" fill="#E2DED4" d="M999.214 1382.86L1004.08 1388.62L1005.41 1389.95C1008.25 1384.64 1004.82 1379.17 1002.76 1377.11C997.591 1374.45 985.843 1368.52 980.176 1366.04C973.093 1362.94 960.253 1364.27 954.94 1374.89C949.627 1385.52 957.154 1395.26 958.482 1399.69C959.545 1403.23 980.767 1411.2 991.245 1414.74L993.459 1411.2L985.047 1409.43L966.452 1399.69L961.139 1391.72L964.681 1379.32L973.093 1373.57L983.718 1375.34L999.214 1382.86Z"></path>
<path style="fill:#525247;fill:color(display-p3 0.3215 0.3215 0.2785);fill-opacity:1;" fill="#525247" d="M998.329 1382.42C1000.81 1383.84 1003.49 1387.14 1004.53 1388.62L993.016 1411.64C989.474 1412.53 978.406 1405.45 969.994 1401.46C961.582 1397.48 958.04 1389.95 964.681 1379.32C969.994 1370.82 980.177 1373.71 984.604 1376.22L998.329 1382.42Z"></path>
<path style="fill:white;fill-opacity:1;" fill="white" d="M992.131 1391.72L988.589 1398.36L990.36 1402.79L993.902 1401.9L997.443 1395.26L996.115 1391.28L992.131 1391.72Z"></path>
<path style="fill:#E2DED4;fill:color(display-p3 0.8880 0.8693 0.8320);fill-opacity:1;" fill="#E2DED4" d="M1184.28 1367.81C1182.86 1363.56 1177.2 1364.86 1174.54 1366.04L1169.23 1349.21C1177.37 1349.92 1182.66 1361.91 1184.28 1367.81Z"></path>
<path style="fill:#E2DED4;fill:color(display-p3 0.8880 0.8693 0.8320);fill-opacity:1;" fill="#E2DED4" d="M496.264 1276.6C471.116 1282.98 471.618 1309.36 475.012 1321.76L523.271 1297.41C539.917 1287.85 550.278 1298.15 553.377 1304.49L564.888 1321.32C571.263 1289.09 553.229 1278.08 543.194 1276.6C539.799 1274.62 531.063 1269.07 519.729 1269.07C508.394 1269.07 498.92 1274.62 496.264 1276.6Z"></path>
<path style="fill:#E2DED4;fill:color(display-p3 0.8880 0.8693 0.8320);fill-opacity:1;" fill="#E2DED4" d="M1104.15 1276.6C1129.3 1282.98 1128.79 1309.36 1125.4 1321.76L1077.14 1297.41C1060.49 1287.85 1050.13 1298.15 1047.03 1304.49L1035.52 1321.32C1029.15 1289.09 1047.18 1278.08 1057.22 1276.6C1060.61 1274.62 1069.35 1269.07 1080.68 1269.07C1092.02 1269.07 1101.49 1274.62 1104.15 1276.6Z"></path>
<ellipse style="fill:white;fill-opacity:1;" fill="white" ry="7.08432" rx="7.08381" cy="1388.62" cx="976.635"></ellipse>
<path style="fill:#525247;fill:color(display-p3 0.3215 0.3215 0.2785);fill-opacity:1;" fill="#525247" d="M594.124 1399.26C609 1410.6 608.734 1441.77 604.307 1456.38L598.994 1452.84L578.628 1462.58L572.872 1470.1V1474.09L568.002 1468.33V1455.05L527.713 1476.3C500.795 1489.05 481.373 1474.24 475.027 1465.23L471.928 1466.12L457.318 1463.46L450.234 1457.26L459.089 1459.48L478.126 1458.59L502.477 1449.29L518.416 1440L522.843 1435.13L524.614 1427.16L526.828 1423.17L527.713 1435.13L534.354 1431.14L532.14 1427.16H540.995C546.603 1423.91 558.173 1417.15 559.59 1416.09C561.007 1415.02 563.427 1408.85 564.46 1405.9L565.346 1412.1L594.124 1399.26Z"></path>
<path style="fill:#E2DED4;fill:color(display-p3 0.8880 0.8693 0.8320);fill-opacity:1;" fill="#E2DED4" d="M544.537 1327.97C540.995 1319.83 543.061 1316.32 544.537 1315.58C543.12 1310.62 537.748 1309.67 535.24 1309.82L443.593 1355.87C427.654 1363.84 434.295 1377.12 435.623 1381.11C436.686 1384.3 440.789 1383.62 442.707 1382.88L501.591 1354.1C510.446 1349.85 514.136 1354.69 514.874 1357.64C513.811 1349.85 517.678 1346.13 519.744 1345.24C536.036 1337.1 543.061 1330.34 544.537 1327.97Z"></path>
<path style="fill:#E2DED4;fill:color(display-p3 0.8880 0.8693 0.8320);fill-opacity:1;" fill="#E2DED4" d="M550.735 1366.5C549.193 1374.47 558.705 1386.27 564.017 1390.85C571.101 1390.85 568.74 1382.29 566.674 1378.01C562.247 1368.56 552.86 1355.51 550.735 1366.5Z"></path>
<path style="fill:#525247;fill:color(display-p3 0.3215 0.3215 0.2785);fill-opacity:1;" fill="#525247" d="M425.883 1366.5C425.883 1368.62 432.082 1387.16 435.181 1396.16V1401.03C427.743 1393.24 424.703 1396.01 424.112 1398.37C421.013 1393.65 414.903 1381.73 415.257 1371.81C415.612 1361.89 422.489 1364.13 425.883 1366.5Z"></path>
<path style="fill:white;fill-opacity:1;" fill="white" d="M420.57 1378.45L426.326 1379.34L428.54 1383.32L427.211 1386.42H421.456L418.799 1382.44L420.57 1378.45Z"></path>
<path style="fill:#E2DED4;fill:color(display-p3 0.8880 0.8693 0.8320);fill-opacity:1;" fill="#E2DED4" d="M600.765 1382.43L595.895 1388.19L594.566 1389.52C591.733 1384.21 595.157 1378.75 597.223 1376.68C602.388 1374.02 614.136 1368.09 619.803 1365.61C626.886 1362.51 639.726 1363.84 645.039 1374.46C650.352 1385.09 642.825 1394.83 641.497 1399.26C640.434 1402.8 619.212 1410.77 608.734 1414.31L606.52 1410.77L614.932 1409L633.527 1399.26L638.84 1391.29L635.298 1378.89L626.886 1373.14L616.261 1374.91L600.765 1382.43Z"></path>
<path style="fill:#525247;fill:color(display-p3 0.3215 0.3215 0.2785);fill-opacity:1;" fill="#525247" d="M601.65 1381.99C599.171 1383.41 596.485 1386.72 595.452 1388.19L606.963 1411.22C610.505 1412.1 621.573 1405.02 629.986 1401.03C638.398 1397.05 641.939 1389.52 635.298 1378.89C629.986 1370.39 619.803 1373.29 615.375 1375.79L601.65 1381.99Z"></path>
<path style="fill:white;fill-opacity:1;" fill="white" d="M607.849 1391.29L611.391 1397.93L609.62 1402.36L606.078 1401.47L602.536 1394.83L603.864 1390.85L607.849 1391.29Z"></path>
<path style="fill:#E2DED4;fill:color(display-p3 0.8880 0.8693 0.8320);fill-opacity:1;" fill="#E2DED4" d="M415.7 1367.38C417.117 1363.13 422.784 1364.43 425.44 1365.61L430.753 1348.78C422.607 1349.49 417.324 1361.48 415.7 1367.38Z"></path>
<ellipse style="fill:white;fill-opacity:1;" fill="white" transform="matrix(-1 0 0 1 630.428 1381.11)" ry="7.08432" rx="7.08381" cy="7.08432" cx="7.08381"></ellipse>
<path style="fill:#E2DED4;fill:color(display-p3 0.8880 0.8693 0.8320);fill-opacity:1;" fill="#E2DED4" d="M504.233 1104.36C452.875 1103.03 462.173 1127.83 459.074 1138.01C456.86 1136.68 453.761 1130.93 453.761 1122.07V1029.09C454.203 1019.79 455.532 1011.38 472.798 1011.38C489.091 1011.38 511.612 1011.82 521.057 1011.82V1104.36H504.233Z"></path>
<path style="fill:#E2DED4;fill:color(display-p3 0.8880 0.8693 0.8320);fill-opacity:1;" fill="#E2DED4" d="M535.667 1104.36C587.025 1103.03 577.727 1127.83 580.827 1138.01C583.04 1136.68 586.139 1130.93 586.139 1122.07V1029.09C585.697 1019.79 584.369 1011.38 567.102 1011.38C550.809 1011.38 528.288 1011.82 518.843 1011.82V1104.36H535.667Z"></path>
<path style="fill:#E2DED4;fill:color(display-p3 0.8880 0.8693 0.8320);fill-opacity:1;" fill="#E2DED4" d="M1064.3 1104.36C1012.94 1103.03 1022.24 1127.83 1019.14 1138.01C1016.92 1136.68 1013.82 1130.93 1013.82 1122.07V1029.09C1014.27 1019.79 1015.6 1011.38 1032.86 1011.38C1049.16 1011.38 1071.68 1011.82 1081.12 1011.82V1104.36H1064.3Z"></path>
<path style="fill:#E2DED4;fill:color(display-p3 0.8880 0.8693 0.8320);fill-opacity:1;" fill="#E2DED4" d="M1095.73 1104.36C1147.09 1103.03 1137.79 1127.83 1140.89 1138.01C1143.1 1136.68 1146.2 1130.93 1146.2 1122.07V1029.09C1145.76 1019.79 1144.43 1011.38 1127.17 1011.38C1110.87 1011.38 1088.35 1011.82 1078.91 1011.82V1104.36H1095.73Z"></path>
<path stroke-linejoin="round" stroke-width="3" style="stroke:#231F20;stroke:color(display-p3 0.1373 0.1216 0.1255);stroke-opacity:1;" stroke="#231F20" d="M799.581 200C709.47 200 691.25 251.712 691.25 297.982V340.937C691.25 383.133 694.607 429.06 737.53 448.841C752.723 455.843 772.865 457.316 799.581 457.316"></path>
<path stroke-linejoin="round" stroke-width="3" style="stroke:#231F20;stroke:color(display-p3 0.1373 0.1216 0.1255);stroke-opacity:1;" stroke="#231F20" d="M800.692 254.883C760.094 254.883 693.159 256.444 691.597 288.301"></path>
<path stroke-linejoin="round" stroke-width="3" style="stroke:#231F20;stroke:color(display-p3 0.1373 0.1216 0.1255);stroke-opacity:1;" stroke="#231F20" d="M800.286 269.08C759.688 269.08 692.811 270.641 691.25 302.497"></path>
<path stroke-linejoin="round" stroke-width="3" style="stroke:#231F20;stroke:color(display-p3 0.1373 0.1216 0.1255);stroke-opacity:1;" stroke="#231F20" d="M784.469 282.715C743.871 282.715 691.25 288.343 691.25 301.772"></path>
<rect stroke-linejoin="round" stroke-width="3" style="fill:#231F20;fill:color(display-p3 0.1373 0.1216 0.1255);fill-opacity:1;stroke:#231F20;stroke:color(display-p3 0.1373 0.1216 0.1255);stroke-opacity:1;" stroke="#231F20" fill="#231F20" rx="8.45622" height="58.8435" width="16.9124" y="305.731" x="756.484"></rect>
<path stroke-linejoin="round" stroke-width="3" style="stroke:#231F20;stroke:color(display-p3 0.1373 0.1216 0.1255);stroke-opacity:1;" stroke="#231F20" d="M800.239 288.545C795.431 288.545 791.534 286.104 791.534 283.094C791.534 280.083 795.431 277.642 800.239 277.642"></path>
<path stroke-linejoin="round" stroke-width="3" style="stroke:#231F20;stroke:color(display-p3 0.1373 0.1216 0.1255);stroke-opacity:1;" stroke="#231F20" d="M799.969 271.174C789.541 271.174 780.977 272.493 780.977 274.942C780.977 275.555 781.534 276.138 782.537 276.667"></path>
<path stroke-linejoin="round" stroke-width="3" style="stroke:#231F20;stroke:color(display-p3 0.1373 0.1216 0.1255);stroke-opacity:1;" stroke="#231F20" d="M799.887 290.914C789.097 290.914 781.795 282.862 782.155 273.63"></path>
<path stroke-linejoin="round" stroke-width="3" style="stroke:#231F20;stroke:color(display-p3 0.1373 0.1216 0.1255);stroke-opacity:1;" stroke="#231F20" d="M745.041 483.873V476.083C752.807 476.083 762.348 478.507 771.324 479.405C780.301 480.303 793.011 481.055 800.231 481.055"></path>
<path stroke-linejoin="round" stroke-width="3" style="stroke:#231F20;stroke:color(display-p3 0.1373 0.1216 0.1255);stroke-opacity:1;" stroke="#231F20" d="M754.05 453.804V476.673"></path>
<path stroke-linejoin="round" stroke-width="3" style="stroke:#231F20;stroke:color(display-p3 0.1373 0.1216 0.1255);stroke-opacity:1;" stroke="#231F20" d="M800.347 489.877C771.357 489.877 754.89 483.965 739.32 483.108C717.246 481.892 665.797 481.545 642.469 514.977L623.922 728.364V812.278C627.638 852.563 649.694 906.185 708.514 917.8C716.771 914.752 740.058 908.383 762.535 908.383C785.012 908.383 797.171 908.383 800.441 908.383"></path>
<path stroke-linejoin="round" stroke-width="3" style="stroke:#231F20;stroke:color(display-p3 0.1373 0.1216 0.1255);stroke-opacity:1;" stroke="#231F20" d="M624.063 724.836H617.387C616.333 724.836 615.479 723.982 615.479 722.928V520.596C615.479 519.542 616.333 518.688 617.387 518.688H642.309"></path>
<path stroke-linejoin="round" stroke-width="3" style="stroke:#231F20;stroke:color(display-p3 0.1373 0.1216 0.1255);stroke-opacity:1;" stroke="#231F20" d="M623.969 785.925H800.046"></path>
<path stroke-linejoin="round" stroke-width="3" style="stroke:#231F20;stroke:color(display-p3 0.1373 0.1216 0.1255);stroke-opacity:1;" stroke="#231F20" d="M716.147 914.528C716.854 918.116 717.778 925.796 730.437 925.796C730.437 925.796 736.575 925.888 736.895 925.796"></path>
<path stroke-linejoin="round" stroke-width="3" style="stroke:#231F20;stroke:color(display-p3 0.1373 0.1216 0.1255);stroke-opacity:1;" stroke="#231F20" d="M800.638 915.582H757.606C750.733 915.333 736.987 916.927 736.987 925.295C736.987 933.663 736.987 1251.83 736.987 1409.87H800.268"></path>
<path stroke-linejoin="round" stroke-width="3" style="stroke:#231F20;stroke:color(display-p3 0.1373 0.1216 0.1255);stroke-opacity:1;" stroke="#231F20" d="M739.877 1409.97V1607.84H800.271"></path>
<path stroke-linejoin="round" stroke-width="3" style="stroke:#231F20;stroke:color(display-p3 0.1373 0.1216 0.1255);stroke-opacity:1;" stroke="#231F20" d="M743.72 1607.81V1807.18"></path>
<path stroke-linejoin="round" stroke-width="3" style="stroke:#231F20;stroke:color(display-p3 0.1373 0.1216 0.1255);stroke-opacity:1;" stroke="#231F20" d="M802.047 1807.21L570.51 1807.21C532.763 1807.21 494.725 1813.94 472.681 1843.33"></path>
<path stroke-linejoin="round" stroke-width="3" style="stroke:#231F20;stroke:color(display-p3 0.1373 0.1216 0.1255);stroke-opacity:1;" stroke="#231F20" d="M800.515 1843.42H457.409L452.606 1848.22V1986.61C453.723 2037.48 452.606 2129.38 480.146 2167.86H800.515"></path>
<path stroke-linejoin="round" stroke-width="3" style="stroke:#231F20;stroke:color(display-p3 0.1373 0.1216 0.1255);stroke-opacity:1;" stroke="#231F20" d="M463.936 874.617C460.319 874.617 458.511 874.617 457.387 873.496C456.264 872.375 456.264 870.571 456.264 866.963V658.735C456.264 656.772 456.264 655.79 456.286 654.96C457.17 622.443 483.383 596.29 515.974 595.408C516.806 595.385 517.79 595.385 519.757 595.385C521.725 595.385 522.709 595.385 523.541 595.408C556.132 596.29 582.345 622.443 583.229 654.96C583.251 655.79 583.251 656.772 583.251 658.735V866.963C583.251 870.571 583.251 872.375 582.128 873.496C581.004 874.617 579.196 874.617 575.579 874.617"></path>
<path stroke-linejoin="round" stroke-width="3" style="stroke:#231F20;stroke:color(display-p3 0.1373 0.1216 0.1255);stroke-opacity:1;" stroke="#231F20" d="M583.251 1017.11V882.27C583.251 878.661 583.251 876.857 582.128 875.736C581.004 874.615 579.196 874.615 575.579 874.615H463.936C460.319 874.615 458.511 874.615 457.387 875.736C456.264 876.857 456.264 878.661 456.264 882.27V1017.11"></path>
<path stroke-linejoin="round" stroke-width="3" style="stroke:#231F20;stroke:color(display-p3 0.1373 0.1216 0.1255);stroke-opacity:1;" stroke="#231F20" d="M615.53 563.815C611.366 564.411 602.044 565.869 598.071 566.933C594.099 567.998 532.954 585.391 502.878 593.955C480.813 600.238 445.807 622.541 456.116 675.255"></path>
<path stroke-linejoin="round" stroke-width="3" style="stroke:#231F20;stroke:color(display-p3 0.1373 0.1216 0.1255);stroke-opacity:1;" stroke="#231F20" d="M583.174 694.499L615.552 685.171"></path>
<path stroke-linejoin="round" stroke-width="3" style="stroke:#231F20;stroke:color(display-p3 0.1373 0.1216 0.1255);stroke-opacity:1;" stroke="#231F20" d="M520.819 1011.3C520.819 1011.3 480.772 1011.3 471.721 1011.3C462.669 1011.3 453.82 1013.24 453.82 1029.2V1123.42C453.718 1127.17 454.741 1135.41 459.65 1138.35"></path>
<path stroke-linejoin="round" stroke-width="3" style="stroke:#231F20;stroke:color(display-p3 0.1373 0.1216 0.1255);stroke-opacity:1;" stroke="#231F20" d="M518.808 1011.3C518.808 1011.3 558.855 1011.3 567.906 1011.3C576.958 1011.3 585.807 1013.24 585.807 1029.2V1123.42C585.909 1127.17 584.886 1135.41 579.976 1138.35"></path>
<path stroke-linejoin="round" stroke-width="3" style="stroke:#231F20;stroke:color(display-p3 0.1373 0.1216 0.1255);stroke-opacity:1;" stroke="#231F20" d="M520.704 1104.1C459.113 1104.1 459.113 1109.26 459.113 1157.22V1255.27"></path>
<path stroke-linejoin="round" stroke-width="3" style="stroke:#231F20;stroke:color(display-p3 0.1373 0.1216 0.1255);stroke-opacity:1;" stroke="#231F20" d="M518.923 1104.1C580.514 1104.1 580.514 1109.26 580.514 1157.22L580.514 1255.27"></path>
<path stroke-linejoin="round" stroke-width="3" style="stroke:#231F20;stroke:color(display-p3 0.1373 0.1216 0.1255);stroke-opacity:1;" stroke="#231F20" d="M520.213 1150.31C464.894 1150.31 459.041 1154.43 459.041 1195.38"></path>
<path stroke-linejoin="round" stroke-width="3" style="stroke:#231F20;stroke:color(display-p3 0.1373 0.1216 0.1255);stroke-opacity:1;" stroke="#231F20" d="M519.413 1150.31C574.732 1150.31 580.585 1154.43 580.585 1195.38"></path>
<path stroke-linejoin="round" stroke-width="3" style="stroke:#231F20;stroke:color(display-p3 0.1373 0.1216 0.1255);stroke-opacity:1;" stroke="#231F20" d="M520.18 1237.94C471.323 1237.94 460.017 1243.15 460.017 1268.14C460.017 1273.65 463.795 1273.46 464.814 1273.65C467.493 1274.13 468.189 1274.83 468.189 1280.58C468.189 1285.69 468.189 1311.72 468.189 1324.1"></path>
<path stroke-linejoin="round" stroke-width="3" style="stroke:#231F20;stroke:color(display-p3 0.1373 0.1216 0.1255);stroke-opacity:1;" stroke="#231F20" d="M519.446 1237.94C568.304 1237.94 579.609 1243.15 579.609 1268.14C579.609 1273.65 575.832 1273.46 574.813 1273.65C572.134 1274.13 571.438 1274.83 571.438 1280.58C571.438 1285.69 571.438 1319.12 571.438 1331.5"></path>
<path stroke-linejoin="round" stroke-width="3" style="stroke:#231F20;stroke:color(display-p3 0.1373 0.1216 0.1255);stroke-opacity:1;" stroke="#231F20" d="M460.122 1268.93C460.122 1268.93 460.122 1255.03 459.721 1255.03C458.087 1255.03 454.442 1260.38 454.442 1277.91C454.442 1295.44 454.442 1331.54 454.442 1331.54"></path>
<path stroke-linejoin="round" stroke-width="3" style="stroke:#231F20;stroke:color(display-p3 0.1373 0.1216 0.1255);stroke-opacity:1;" stroke="#231F20" d="M579.505 1268.93C579.505 1268.93 579.505 1255.03 579.906 1255.03C581.54 1255.03 585.185 1260.38 585.185 1277.91C585.185 1295.44 585.185 1331.54 585.185 1331.54C585.185 1338.67 584.062 1345.84 583.024 1348.67"></path>
<path stroke-linejoin="round" stroke-width="3" style="stroke:#231F20;stroke:color(display-p3 0.1373 0.1216 0.1255);stroke-opacity:1;" stroke="#231F20" d="M520.582 1269.19C507.823 1269.55 489.738 1275.05 489.738 1289.17V1313.91"></path>
<path stroke-linejoin="round" stroke-width="3" style="stroke:#231F20;stroke:color(display-p3 0.1373 0.1216 0.1255);stroke-opacity:1;" stroke="#231F20" d="M519.045 1269.19C531.804 1269.55 549.888 1275.05 549.888 1289.17V1299.79"></path>
<path stroke-linejoin="round" stroke-width="3" style="stroke:#231F20;stroke:color(display-p3 0.1373 0.1216 0.1255);stroke-opacity:1;" stroke="#231F20" d="M474.872 1321.34C474.428 1318.68 473.54 1311.96 473.54 1306.36C473.54 1299.37 474.617 1282.07 497.394 1275.96"></path>
<path stroke-linejoin="round" stroke-width="3" style="stroke:#231F20;stroke:color(display-p3 0.1373 0.1216 0.1255);stroke-opacity:1;" stroke="#231F20" d="M564.755 1321.34C565.199 1318.68 566.087 1311.96 566.087 1306.36C566.087 1299.37 565.01 1282.07 542.233 1275.96"></path>
<path stroke-linejoin="round" stroke-width="3" style="stroke:#231F20;stroke:color(display-p3 0.1373 0.1216 0.1255);stroke-opacity:1;" stroke="#231F20" d="M597.598 1377.13C597.277 1373.76 594.927 1366.86 590.588 1360.25L553.355 1303.91C549.557 1297.33 538.159 1288.59 523.024 1297.33L447.634 1334.88C439.292 1339.7 432.074 1344.09 430.035 1351.7L425.624 1364.49C424.583 1368.37 424.958 1369.72 426.244 1374.51C427.529 1379.31 431.997 1392.97 435.399 1397.16"></path>
<path stroke-linejoin="round" stroke-width="3" style="stroke:#231F20;stroke:color(display-p3 0.1373 0.1216 0.1255);stroke-opacity:1;" stroke="#231F20" d="M435.428 1393.9C432.836 1389.04 428.83 1377.77 427.614 1373.23C425.667 1365.96 428.286 1362.81 432.506 1360.37L530.104 1311.52C535.038 1308.67 541.811 1306.83 543.874 1314.53C545.677 1321.26 548.044 1329.32 552.83 1337.61L578.331 1378.88C579.453 1380.83 579.857 1385.25 573.462 1388.94L562.53 1394.19"></path>
<path stroke-linejoin="round" stroke-width="3" style="stroke:#231F20;stroke:color(display-p3 0.1373 0.1216 0.1255);stroke-opacity:1;" stroke="#231F20" d="M544.497 1316.19C542.364 1316.19 540.98 1320.05 544.497 1328.11C544.497 1328.11 545.186 1331.66 534.143 1338.03L521.48 1344.39C518.543 1346.09 515.28 1347.28 515.28 1352.5V1380.46C515.28 1391.83 526.658 1418.56 530.971 1426.03C534.653 1432.41 536.091 1432.21 538.994 1430.53L562.226 1419.03C564.48 1417.73 566.01 1415.31 564.782 1408.92C563.628 1402.92 562.984 1395.19 562.653 1391.32"></path>
<path stroke-linejoin="round" stroke-width="3" style="stroke:#231F20;stroke:color(display-p3 0.1373 0.1216 0.1255);stroke-opacity:1;" stroke="#231F20" d="M564.607 1373.98C561.652 1368.86 557.918 1362.99 552.879 1362.99C543.5 1362.99 558.598 1392.6 563.916 1391.17C570.847 1389.31 567.437 1378.88 564.607 1373.98Z"></path>
<path stroke-linejoin="round" stroke-width="3" style="stroke:#231F20;stroke:color(display-p3 0.1373 0.1216 0.1255);stroke-opacity:1;" stroke="#231F20" d="M563.587 1354.63L563.306 1372.05"></path>
<path stroke-linejoin="round" stroke-width="3" style="stroke:#231F20;stroke:color(display-p3 0.1373 0.1216 0.1255);stroke-opacity:1;" stroke="#231F20" d="M515.34 1380.16C515.34 1378.28 516.299 1376.82 520.378 1374.47L538.756 1365.42C542.023 1363.53 546.374 1362.59 549.765 1365.98"></path>
<path stroke-linejoin="round" stroke-width="3" style="stroke:#231F20;stroke:color(display-p3 0.1373 0.1216 0.1255);stroke-opacity:1;" stroke="#231F20" d="M435.704 1422.23C435.704 1420.35 436.663 1418.9 440.742 1416.54L501.191 1386.36C506.215 1383.46 509.773 1383.2 513.692 1387.12"></path>
<path stroke-linejoin="round" stroke-width="3" style="stroke:#231F20;stroke:color(display-p3 0.1373 0.1216 0.1255);stroke-opacity:1;" stroke="#231F20" d="M515.717 1384C510.162 1382.55 516.942 1399.72 521.22 1403.83"></path>
<path stroke-linejoin="round" stroke-width="3" style="stroke:#231F20;stroke:color(display-p3 0.1373 0.1216 0.1255);stroke-opacity:1;" stroke="#231F20" d="M433.631 1373.32C433.155 1375.57 433.264 1381.25 435.755 1386.23L435.609 1422.87C435.609 1431.29 444.279 1449.3 449.957 1457.42C454.746 1465.72 471.607 1469.44 492.416 1460.77C514.025 1451.77 528.25 1445.47 527.648 1435.84C527.177 1428.31 526.313 1416.55 526.313 1416.55"></path>
<path stroke-linejoin="round" stroke-width="3" style="stroke:#231F20;stroke:color(display-p3 0.1373 0.1216 0.1255);stroke-opacity:1;" stroke="#231F20" d="M523.969 1410.92L524.417 1427.28C524.417 1432.65 522.949 1437.68 515.498 1441.98C503.919 1448.67 467.267 1469.65 448.272 1455.11"></path>
<path stroke-linejoin="round" stroke-width="3" style="stroke:#231F20;stroke:color(display-p3 0.1373 0.1216 0.1255);stroke-opacity:1;" stroke="#231F20" d="M435.628 1423.03C433.562 1423.41 430.528 1426.72 434.916 1436.92C439.304 1447.12 444.201 1450.48 446.101 1450.89"></path>
<path stroke-linejoin="round" stroke-width="3" style="stroke:#231F20;stroke:color(display-p3 0.1373 0.1216 0.1255);stroke-opacity:1;" stroke="#231F20" d="M1164.15 1423.03C1166.22 1423.41 1169.25 1426.72 1164.87 1436.92C1160.48 1447.12 1155.58 1450.48 1153.68 1450.89"></path>
<path stroke-linejoin="round" stroke-width="3" style="stroke:#231F20;stroke:color(display-p3 0.1373 0.1216 0.1255);stroke-opacity:1;" stroke="#231F20" d="M543.524 1313.71C542.215 1311.91 537.009 1309.65 526.668 1314.95L444.452 1356.21C434.114 1362.18 429.766 1365.03 436.297 1382.97C436.955 1385.43 442.486 1383.98 445.244 1382.39L488.054 1360.86C489.112 1360.25 489.083 1361.57 490.919 1360.52L502.326 1354.7C506.034 1352.56 511.175 1351.73 515.433 1360.25"></path>
<path stroke-linejoin="round" stroke-width="3" style="stroke:#231F20;stroke:color(display-p3 0.1373 0.1216 0.1255);stroke-opacity:1;" stroke="#231F20" d="M489.875 1360.8C487.138 1354.4 482.193 1340.52 484.312 1336.19"></path>
<path stroke-linejoin="round" stroke-width="3" style="stroke:#231F20;stroke:color(display-p3 0.1373 0.1216 0.1255);stroke-opacity:1;" stroke="#231F20" d="M431.172 1348.58C419.062 1354.78 413.837 1361.99 415.215 1378.43C416.141 1389.47 423.577 1398.47 424.904 1399.45"></path>
<path stroke-linejoin="round" stroke-width="3" style="stroke:#231F20;stroke:color(display-p3 0.1373 0.1216 0.1255);stroke-opacity:1;" stroke="#231F20" d="M435.791 1403.54C421.994 1387.94 420.03 1402.82 435.533 1409.95"></path>
<path stroke-linejoin="round" stroke-width="3" style="stroke:#231F20;stroke:color(display-p3 0.1373 0.1216 0.1255);stroke-opacity:1;" stroke="#231F20" d="M594.812 1389.72L608.007 1414.17C609.721 1414.47 616.036 1412.89 620.332 1410.95L633.264 1404.65C641.187 1400.29 651.404 1389.12 644.082 1374.63C637.004 1360.62 621.885 1363.86 614.558 1367.64L600.587 1374.63C589.857 1380.82 593.912 1387.57 594.812 1389.72Z"></path>
<path stroke-linejoin="round" stroke-width="3" style="stroke:#231F20;stroke:color(display-p3 0.1373 0.1216 0.1255);stroke-opacity:1;" stroke="#231F20" d="M594.561 1389.17C595.788 1387.38 599.013 1383.47 602.096 1382.09L613.829 1376.05C619.006 1373.37 630.348 1370.07 636.376 1381.34C642.404 1392.62 634.708 1399.06 628.899 1402.22L616.13 1408.72C613.887 1409.64 608.837 1411.37 606.582 1410.91"></path>
<path stroke-linejoin="round" stroke-width="3" style="stroke:#231F20;stroke:color(display-p3 0.1373 0.1216 0.1255);stroke-opacity:1;" stroke="#231F20" d="M623.032 1381.21C627.082 1381.21 630.39 1384.53 630.39 1388.65C630.39 1392.77 627.082 1396.09 623.032 1396.09C618.981 1396.09 615.674 1392.77 615.674 1388.65C615.674 1384.53 618.982 1381.21 623.032 1381.21Z"></path>
<path stroke-linejoin="round" stroke-width="3" style="stroke:#231F20;stroke:color(display-p3 0.1373 0.1216 0.1255);stroke-opacity:1;" stroke="#231F20" d="M603.968 1391.28C605.351 1390.53 607.076 1391.05 607.82 1392.43L610.876 1398.11C611.62 1399.49 611.102 1401.21 609.72 1401.96C608.337 1402.7 606.614 1402.19 605.869 1400.8L602.814 1395.13C602.069 1393.75 602.586 1392.02 603.968 1391.28Z"></path>
<path stroke-linejoin="round" stroke-width="3" style="stroke:#231F20;stroke:color(display-p3 0.1373 0.1216 0.1255);stroke-opacity:1;" stroke="#231F20" d="M609.1 1414.27C612.167 1429.94 619.096 1458.46 605.464 1464.71L584.335 1474.82C581.306 1476.29 575.031 1477.21 570.25 1472.43C567.663 1469.85 567.663 1465.05 567.663 1461.29C567.663 1455.54 566.791 1444.8 565.246 1443.35C563.315 1441.53 552.418 1432.29 549.121 1425.85"></path>
<path stroke-linejoin="round" stroke-width="3" style="stroke:#231F20;stroke:color(display-p3 0.1373 0.1216 0.1255);stroke-opacity:1;" stroke="#231F20" d="M561.656 1390.76L562.869 1405.22C563.278 1409.52 561.409 1416.22 555.228 1419.79L541.398 1426.78C539.324 1427.99 534.335 1429.08 530.977 1426.16"></path>
<path stroke-linejoin="round" stroke-width="3" style="stroke:#231F20;stroke:color(display-p3 0.1373 0.1216 0.1255);stroke-opacity:1;" stroke="#231F20" d="M567.461 1455.75L535.056 1472.44C518.911 1481.76 490.663 1489.06 474.828 1465.6"></path>
<path stroke-linejoin="round" stroke-width="3" style="stroke:#231F20;stroke:color(display-p3 0.1373 0.1216 0.1255);stroke-opacity:1;" stroke="#231F20" d="M527.43 1431.76L532.828 1429.06"></path>
<path stroke-linejoin="round" stroke-width="3" style="stroke:#231F20;stroke:color(display-p3 0.1373 0.1216 0.1255);stroke-opacity:1;" stroke="#231F20" d="M536.613 1431.56L527.478 1436.16"></path>
<path stroke-linejoin="round" stroke-width="3" style="stroke:#231F20;stroke:color(display-p3 0.1373 0.1216 0.1255);stroke-opacity:1;" stroke="#231F20" d="M565.449 1412.93L589.758 1400.51C593.377 1398.42 594.961 1399.72 597.013 1402.77C606.254 1416.46 610.943 1443.73 604.426 1456.74C604.046 1457.5 601.814 1455.28 600.802 1454.32C599.537 1453.12 597.779 1453.15 595.63 1454.32C592.546 1456.01 579.963 1462.16 578.763 1462.88C577.562 1463.59 573.04 1469.14 573.04 1469.14C572.072 1470.2 570.738 1472.32 574.064 1473.48C577.389 1474.64 574.767 1474.64 573.04 1474.5"></path>
<path stroke-linejoin="round" stroke-width="3" style="stroke:#231F20;stroke:color(display-p3 0.1373 0.1216 0.1255);stroke-opacity:1;" stroke="#231F20" d="M415.714 1382.28C414.669 1374.63 415.116 1360.66 425.26 1365.97"></path>
<path stroke-linejoin="round" stroke-width="3" style="stroke:#231F20;stroke:color(display-p3 0.1373 0.1216 0.1255);stroke-opacity:1;" stroke="#231F20" d="M425.117 1379.36L421.434 1378.63C417.993 1378.01 419.036 1386 422.196 1386.55L425.778 1387.08C429.253 1387.36 427.272 1379.82 425.117 1379.36Z"></path>
<path stroke-linejoin="round" stroke-width="3" style="stroke:#231F20;stroke:color(display-p3 0.1373 0.1216 0.1255);stroke-opacity:1;" stroke="#231F20" d="M799.256 200C889.367 200 908.472 251.712 908.472 297.982V340.937C908.472 383.133 905.115 429.06 862.191 448.841C846.998 455.843 826.255 457.316 799.539 457.316"></path>
<path stroke-linejoin="round" stroke-width="3" style="stroke:#231F20;stroke:color(display-p3 0.1373 0.1216 0.1255);stroke-opacity:1;" stroke="#231F20" d="M799.915 254.883C840.513 254.883 906.563 256.444 908.125 288.301"></path>
<path stroke-linejoin="round" stroke-width="3" style="stroke:#231F20;stroke:color(display-p3 0.1373 0.1216 0.1255);stroke-opacity:1;" stroke="#231F20" d="M799.436 269.08C840.034 269.08 906.911 270.641 908.472 302.497"></path>
<path stroke-linejoin="round" stroke-width="3" style="stroke:#231F20;stroke:color(display-p3 0.1373 0.1216 0.1255);stroke-opacity:1;" stroke="#231F20" d="M815.253 282.715C855.851 282.715 908.472 288.343 908.472 301.772"></path>
<rect stroke-linejoin="round" stroke-width="3" style="fill:#231F20;fill:color(display-p3 0.1373 0.1216 0.1255);fill-opacity:1;stroke:#231F20;stroke:color(display-p3 0.1373 0.1216 0.1255);stroke-opacity:1;" stroke="#231F20" fill="#231F20" transform="matrix(-1 0 0 1 841.738 304.231)" rx="8.45622" height="58.8435" width="16.9124" y="1.5" x="-1.5"></rect>
<path stroke-linejoin="round" stroke-width="3" style="stroke:#231F20;stroke:color(display-p3 0.1373 0.1216 0.1255);stroke-opacity:1;" stroke="#231F20" d="M799.483 288.545C804.291 288.545 808.188 286.104 808.188 283.094C808.188 280.083 804.291 277.642 799.483 277.642"></path>
<path stroke-linejoin="round" stroke-width="3" style="stroke:#231F20;stroke:color(display-p3 0.1373 0.1216 0.1255);stroke-opacity:1;" stroke="#231F20" d="M799.753 271.174C810.18 271.174 818.744 272.493 818.744 274.942C818.744 275.555 818.188 276.138 817.184 276.667"></path>
<path stroke-linejoin="round" stroke-width="3" style="stroke:#231F20;stroke:color(display-p3 0.1373 0.1216 0.1255);stroke-opacity:1;" stroke="#231F20" d="M799.835 290.914C810.625 290.914 817.927 282.862 817.567 273.63"></path>
<path stroke-linejoin="round" stroke-width="3" style="stroke:#231F20;stroke:color(display-p3 0.1373 0.1216 0.1255);stroke-opacity:1;" stroke="#231F20" d="M854.681 483.873V476.083C846.915 476.083 837.374 478.507 828.397 479.405C819.421 480.303 806.711 481.055 799.491 481.055"></path>
<path stroke-linejoin="round" stroke-width="3" style="stroke:#231F20;stroke:color(display-p3 0.1373 0.1216 0.1255);stroke-opacity:1;" stroke="#231F20" d="M845.672 453.804V476.673"></path>
<path stroke-linejoin="round" stroke-width="3" style="stroke:#231F20;stroke:color(display-p3 0.1373 0.1216 0.1255);stroke-opacity:1;" stroke="#231F20" d="M799.375 489.877C828.365 489.877 844.832 483.965 860.402 483.108C882.475 481.892 933.925 481.545 957.253 514.977L975.8 728.364V812.278C972.084 852.563 950.028 906.185 891.208 917.8C882.95 914.752 859.664 908.383 837.187 908.383C814.709 908.383 802.551 908.383 799.281 908.383"></path>
<path stroke-linejoin="round" stroke-width="3" style="stroke:#231F20;stroke:color(display-p3 0.1373 0.1216 0.1255);stroke-opacity:1;" stroke="#231F20" d="M975.659 724.836H982.335C983.389 724.836 984.243 723.982 984.243 722.928V520.596C984.243 519.542 983.389 518.688 982.335 518.688H957.413"></path>
<path stroke-linejoin="round" stroke-width="3" style="stroke:#231F20;stroke:color(display-p3 0.1373 0.1216 0.1255);stroke-opacity:1;" stroke="#231F20" d="M975.753 785.925H799.675"></path>
<path stroke-linejoin="round" stroke-width="3" style="stroke:#231F20;stroke:color(display-p3 0.1373 0.1216 0.1255);stroke-opacity:1;" stroke="#231F20" d="M883.575 914.528C882.868 918.116 881.944 925.796 869.285 925.796C869.285 925.796 863.147 925.888 862.826 925.796"></path>
<path stroke-linejoin="round" stroke-width="3" style="stroke:#231F20;stroke:color(display-p3 0.1373 0.1216 0.1255);stroke-opacity:1;" stroke="#231F20" d="M799.084 915.582H842.115C848.988 915.333 862.734 916.927 862.734 925.295C862.734 933.663 862.734 1251.83 862.734 1409.87H799.453"></path>
<path stroke-linejoin="round" stroke-width="3" style="stroke:#231F20;stroke:color(display-p3 0.1373 0.1216 0.1255);stroke-opacity:1;" stroke="#231F20" d="M859.845 1409.97V1607.84H799.451"></path>
<path stroke-linejoin="round" stroke-width="3" style="stroke:#231F20;stroke:color(display-p3 0.1373 0.1216 0.1255);stroke-opacity:1;" stroke="#231F20" d="M856.002 1607.81V1807.18"></path>
<path stroke-linejoin="round" stroke-width="3" style="stroke:#231F20;stroke:color(display-p3 0.1373 0.1216 0.1255);stroke-opacity:1;" stroke="#231F20" d="M797.675 1807.21L1029.21 1807.21C1066.96 1807.21 1105 1813.94 1127.04 1843.33"></path>
<path stroke-linejoin="round" stroke-width="3" style="stroke:#231F20;stroke:color(display-p3 0.1373 0.1216 0.1255);stroke-opacity:1;" stroke="#231F20" d="M799.207 1843.42H1142.31L1147.12 1848.22V1986.61C1146 2037.48 1147.12 2129.38 1119.58 2167.86H799.207"></path>
<path stroke-linejoin="round" stroke-width="3" style="stroke:#231F20;stroke:color(display-p3 0.1373 0.1216 0.1255);stroke-opacity:1;" stroke="#231F20" d="M1135.79 874.617C1139.4 874.617 1141.21 874.617 1142.33 873.496C1143.46 872.375 1143.46 870.571 1143.46 866.963V658.735C1143.46 656.772 1143.46 655.79 1143.44 654.96C1142.55 622.443 1116.34 596.29 1083.75 595.408C1082.92 595.385 1081.93 595.385 1079.96 595.385C1078 595.385 1077.01 595.385 1076.18 595.408C1043.59 596.29 1017.38 622.443 1016.49 654.96C1016.47 655.79 1016.47 656.772 1016.47 658.735V866.963C1016.47 870.571 1016.47 872.375 1017.59 873.496C1018.72 874.617 1020.53 874.617 1024.14 874.617"></path>
<path stroke-linejoin="round" stroke-width="3" style="stroke:#231F20;stroke:color(display-p3 0.1373 0.1216 0.1255);stroke-opacity:1;" stroke="#231F20" d="M1016.47 1017.11V882.27C1016.47 878.661 1016.47 876.857 1017.59 875.736C1018.72 874.615 1020.53 874.615 1024.14 874.615H1135.79C1139.4 874.615 1141.21 874.615 1142.33 875.736C1143.46 876.857 1143.46 878.661 1143.46 882.27V1017.11"></path>
<path stroke-linejoin="round" stroke-width="3" style="stroke:#231F20;stroke:color(display-p3 0.1373 0.1216 0.1255);stroke-opacity:1;" stroke="#231F20" d="M984.191 563.815C988.356 564.411 997.677 565.869 1001.65 566.933C1005.62 567.998 1066.77 585.391 1096.84 593.955C1118.91 600.238 1153.91 622.541 1143.61 675.255"></path>
<path stroke-linejoin="round" stroke-width="3" style="stroke:#231F20;stroke:color(display-p3 0.1373 0.1216 0.1255);stroke-opacity:1;" stroke="#231F20" d="M1016.55 694.499L984.17 685.171"></path>
<path stroke-linejoin="round" stroke-width="3" style="stroke:#231F20;stroke:color(display-p3 0.1373 0.1216 0.1255);stroke-opacity:1;" stroke="#231F20" d="M1078.9 1011.3C1078.9 1011.3 1118.95 1011.3 1128 1011.3C1137.05 1011.3 1145.9 1013.24 1145.9 1029.2V1123.42C1146 1127.17 1144.98 1135.41 1140.07 1138.35"></path>
<path stroke-linejoin="round" stroke-width="3" style="stroke:#231F20;stroke:color(display-p3 0.1373 0.1216 0.1255);stroke-opacity:1;" stroke="#231F20" d="M1080.91 1011.3C1080.91 1011.3 1040.87 1011.3 1031.82 1011.3C1022.76 1011.3 1013.91 1013.24 1013.91 1029.2V1123.42C1013.81 1127.17 1014.84 1135.41 1019.75 1138.35"></path>
<path stroke-linejoin="round" stroke-width="3" style="stroke:#231F20;stroke:color(display-p3 0.1373 0.1216 0.1255);stroke-opacity:1;" stroke="#231F20" d="M1079.02 1104.1C1140.61 1104.1 1140.61 1109.26 1140.61 1157.22V1255.27"></path>
<path stroke-linejoin="round" stroke-width="3" style="stroke:#231F20;stroke:color(display-p3 0.1373 0.1216 0.1255);stroke-opacity:1;" stroke="#231F20" d="M1080.8 1104.1C1019.21 1104.1 1019.21 1109.26 1019.21 1157.22V1255.27"></path>
<path stroke-linejoin="round" stroke-width="3" style="stroke:#231F20;stroke:color(display-p3 0.1373 0.1216 0.1255);stroke-opacity:1;" stroke="#231F20" d="M1079.51 1150.31C1134.83 1150.31 1140.68 1154.43 1140.68 1195.38"></path>
<path stroke-linejoin="round" stroke-width="3" style="stroke:#231F20;stroke:color(display-p3 0.1373 0.1216 0.1255);stroke-opacity:1;" stroke="#231F20" d="M1080.31 1150.31C1024.99 1150.31 1019.14 1154.43 1019.14 1195.38"></path>
<path stroke-linejoin="round" stroke-width="3" style="stroke:#231F20;stroke:color(display-p3 0.1373 0.1216 0.1255);stroke-opacity:1;" stroke="#231F20" d="M1079.54 1237.94C1128.4 1237.94 1139.7 1243.15 1139.7 1268.14C1139.7 1273.65 1135.93 1273.46 1134.91 1273.65C1132.23 1274.13 1131.53 1274.83 1131.53 1280.58C1131.53 1285.69 1131.53 1311.72 1131.53 1324.1"></path>
<path stroke-linejoin="round" stroke-width="3" style="stroke:#231F20;stroke:color(display-p3 0.1373 0.1216 0.1255);stroke-opacity:1;" stroke="#231F20" d="M1080.28 1237.94C1031.42 1237.94 1020.11 1243.15 1020.11 1268.14C1020.11 1273.65 1023.89 1273.46 1024.91 1273.65C1027.59 1274.13 1028.28 1274.83 1028.28 1280.58C1028.28 1285.69 1028.28 1319.12 1028.28 1331.5"></path>
<path stroke-linejoin="round" stroke-width="3" style="stroke:#231F20;stroke:color(display-p3 0.1373 0.1216 0.1255);stroke-opacity:1;" stroke="#231F20" d="M1139.6 1268.93C1139.6 1268.93 1139.6 1255.03 1140 1255.03C1141.64 1255.03 1145.28 1260.38 1145.28 1277.91C1145.28 1295.44 1145.28 1331.54 1145.28 1331.54"></path>
<path stroke-linejoin="round" stroke-width="3" style="stroke:#231F20;stroke:color(display-p3 0.1373 0.1216 0.1255);stroke-opacity:1;" stroke="#231F20" d="M1020.22 1268.93C1020.22 1268.93 1020.22 1255.03 1019.82 1255.03C1018.18 1255.03 1014.54 1260.38 1014.54 1277.91C1014.54 1295.44 1014.54 1331.54 1014.54 1331.54C1014.54 1338.67 1015.66 1345.84 1016.7 1348.67"></path>
<path stroke-linejoin="round" stroke-width="3" style="stroke:#231F20;stroke:color(display-p3 0.1373 0.1216 0.1255);stroke-opacity:1;" stroke="#231F20" d="M1079.14 1269.19C1091.9 1269.55 1109.98 1275.05 1109.98 1289.17V1313.91"></path>
<path stroke-linejoin="round" stroke-width="3" style="stroke:#231F20;stroke:color(display-p3 0.1373 0.1216 0.1255);stroke-opacity:1;" stroke="#231F20" d="M1080.68 1269.19C1067.92 1269.55 1049.83 1275.05 1049.83 1289.17V1299.79"></path>
<path stroke-linejoin="round" stroke-width="3" style="stroke:#231F20;stroke:color(display-p3 0.1373 0.1216 0.1255);stroke-opacity:1;" stroke="#231F20" d="M1124.85 1321.34C1125.29 1318.68 1126.18 1311.96 1126.18 1306.36C1126.18 1299.37 1125.11 1282.07 1102.33 1275.96"></path>
<path stroke-linejoin="round" stroke-width="3" style="stroke:#231F20;stroke:color(display-p3 0.1373 0.1216 0.1255);stroke-opacity:1;" stroke="#231F20" d="M1034.97 1321.34C1034.52 1318.68 1033.64 1311.96 1033.64 1306.36C1033.64 1299.37 1034.71 1282.07 1057.49 1275.96"></path>
<path stroke-linejoin="round" stroke-width="3" style="stroke:#231F20;stroke:color(display-p3 0.1373 0.1216 0.1255);stroke-opacity:1;" stroke="#231F20" d="M1002.12 1377.13C1002.45 1373.76 1004.79 1366.86 1009.13 1360.25L1046.37 1303.91C1050.17 1297.33 1061.56 1288.59 1076.7 1297.33L1152.09 1334.88C1160.43 1339.7 1167.65 1344.09 1169.69 1351.7L1174.1 1364.49C1175.14 1368.37 1174.76 1369.72 1173.48 1374.51C1172.19 1379.31 1167.73 1392.97 1164.32 1397.16"></path>
<path stroke-linejoin="round" stroke-width="3" style="stroke:#231F20;stroke:color(display-p3 0.1373 0.1216 0.1255);stroke-opacity:1;" stroke="#231F20" d="M1164.29 1393.9C1166.89 1389.04 1170.89 1377.77 1172.11 1373.23C1174.05 1365.96 1171.44 1362.81 1167.22 1360.37L1069.62 1311.52C1064.68 1308.67 1057.91 1306.83 1055.85 1314.53C1054.04 1321.26 1051.68 1329.32 1046.89 1337.61L1021.39 1378.88C1020.27 1380.83 1019.86 1385.25 1026.26 1388.94L1037.19 1394.19"></path>
<path stroke-linejoin="round" stroke-width="3" style="stroke:#231F20;stroke:color(display-p3 0.1373 0.1216 0.1255);stroke-opacity:1;" stroke="#231F20" d="M1055.22 1316.19C1057.36 1316.19 1058.74 1320.05 1055.22 1328.11C1055.22 1328.11 1054.54 1331.66 1065.58 1338.03L1078.24 1344.39C1081.18 1346.09 1084.44 1347.28 1084.44 1352.5V1380.46C1084.44 1391.83 1073.06 1418.56 1068.75 1426.03C1065.07 1432.41 1063.63 1432.21 1060.73 1430.53L1037.5 1419.03C1035.24 1417.73 1033.71 1415.31 1034.94 1408.92C1036.09 1402.92 1036.74 1395.19 1037.07 1391.32"></path>
<path stroke-linejoin="round" stroke-width="3" style="stroke:#231F20;stroke:color(display-p3 0.1373 0.1216 0.1255);stroke-opacity:1;" stroke="#231F20" d="M1035.11 1373.98C1038.07 1368.86 1041.8 1362.99 1046.84 1362.99C1056.22 1362.99 1041.12 1392.6 1035.81 1391.17C1028.87 1389.31 1032.28 1378.88 1035.11 1373.98Z"></path>
<path stroke-linejoin="round" stroke-width="3" style="stroke:#231F20;stroke:color(display-p3 0.1373 0.1216 0.1255);stroke-opacity:1;" stroke="#231F20" d="M1036.13 1354.63L1036.42 1372.05"></path>
<path stroke-linejoin="round" stroke-width="3" style="stroke:#231F20;stroke:color(display-p3 0.1373 0.1216 0.1255);stroke-opacity:1;" stroke="#231F20" d="M1084.38 1380.16C1084.38 1378.28 1083.42 1376.82 1079.34 1374.47L1060.96 1365.42C1057.7 1363.53 1053.35 1362.59 1049.96 1365.98"></path>
<path stroke-linejoin="round" stroke-width="3" style="stroke:#231F20;stroke:color(display-p3 0.1373 0.1216 0.1255);stroke-opacity:1;" stroke="#231F20" d="M1164.02 1422.23C1164.02 1420.35 1163.06 1418.9 1158.98 1416.54L1098.53 1386.36C1093.51 1383.46 1089.95 1383.2 1086.03 1387.12"></path>
<path stroke-linejoin="round" stroke-width="3" style="stroke:#231F20;stroke:color(display-p3 0.1373 0.1216 0.1255);stroke-opacity:1;" stroke="#231F20" d="M1084 1384C1089.56 1382.55 1082.78 1399.72 1078.5 1403.83"></path>
<path stroke-linejoin="round" stroke-width="3" style="stroke:#231F20;stroke:color(display-p3 0.1373 0.1216 0.1255);stroke-opacity:1;" stroke="#231F20" d="M1166.09 1373.32C1166.57 1375.57 1166.46 1381.25 1163.97 1386.23L1164.11 1422.87C1164.11 1431.29 1155.44 1449.3 1149.76 1457.42C1144.98 1465.72 1128.12 1469.44 1107.31 1460.77C1085.7 1451.77 1071.47 1445.47 1072.07 1435.84C1072.54 1428.31 1073.41 1416.55 1073.41 1416.55"></path>
<path stroke-linejoin="round" stroke-width="3" style="stroke:#231F20;stroke:color(display-p3 0.1373 0.1216 0.1255);stroke-opacity:1;" stroke="#231F20" d="M1075.75 1410.92L1075.3 1427.28C1075.3 1432.65 1076.77 1437.68 1084.22 1441.98C1095.8 1448.67 1132.45 1469.65 1151.45 1455.11"></path>
<path stroke-linejoin="round" stroke-width="3" style="stroke:#231F20;stroke:color(display-p3 0.1373 0.1216 0.1255);stroke-opacity:1;" stroke="#231F20" d="M1056.2 1313.71C1057.51 1311.91 1062.71 1309.65 1073.05 1314.95L1155.27 1356.21C1165.61 1362.18 1169.96 1365.03 1163.42 1382.97C1162.77 1385.43 1157.24 1383.98 1154.48 1382.39L1111.67 1360.86C1110.61 1360.25 1110.64 1361.57 1108.8 1360.52L1097.4 1354.7C1093.69 1352.56 1088.55 1351.73 1084.29 1360.25"></path>
<path stroke-linejoin="round" stroke-width="3" style="stroke:#231F20;stroke:color(display-p3 0.1373 0.1216 0.1255);stroke-opacity:1;" stroke="#231F20" d="M1109.85 1360.8C1112.58 1354.4 1117.53 1340.52 1115.41 1336.19"></path>
<path stroke-linejoin="round" stroke-width="3" style="stroke:#231F20;stroke:color(display-p3 0.1373 0.1216 0.1255);stroke-opacity:1;" stroke="#231F20" d="M1168.55 1348.58C1180.66 1354.78 1185.88 1361.99 1184.51 1378.43C1183.58 1389.47 1176.15 1398.47 1174.82 1399.45"></path>
<path stroke-linejoin="round" stroke-width="3" style="stroke:#231F20;stroke:color(display-p3 0.1373 0.1216 0.1255);stroke-opacity:1;" stroke="#231F20" d="M1163.93 1403.54C1177.73 1387.94 1179.69 1402.82 1164.19 1409.95"></path>
<path stroke-linejoin="round" stroke-width="3" style="stroke:#231F20;stroke:color(display-p3 0.1373 0.1216 0.1255);stroke-opacity:1;" stroke="#231F20" d="M1004.91 1389.72L991.715 1414.17C990.001 1414.47 983.686 1412.89 979.39 1410.95L966.458 1404.65C958.535 1400.29 948.318 1389.12 955.639 1374.63C962.718 1360.62 977.837 1363.86 985.164 1367.64L999.135 1374.63C1009.87 1380.82 1005.81 1387.57 1004.91 1389.72Z"></path>
<path stroke-linejoin="round" stroke-width="3" style="stroke:#231F20;stroke:color(display-p3 0.1373 0.1216 0.1255);stroke-opacity:1;" stroke="#231F20" d="M1005.16 1389.17C1003.93 1387.38 1000.71 1383.47 997.626 1382.09L985.892 1376.05C980.716 1373.37 969.373 1370.07 963.346 1381.34C957.318 1392.62 965.014 1399.06 970.823 1402.22L983.592 1408.72C985.835 1409.64 990.885 1411.37 993.14 1410.91"></path>
<path stroke-linejoin="round" stroke-width="3" style="stroke:#231F20;stroke:color(display-p3 0.1373 0.1216 0.1255);stroke-opacity:1;" stroke="#231F20" d="M976.69 1381.21C972.64 1381.21 969.332 1384.53 969.332 1388.65C969.332 1392.77 972.64 1396.09 976.69 1396.09C980.74 1396.09 984.047 1392.77 984.047 1388.65C984.047 1384.53 980.74 1381.21 976.69 1381.21Z"></path>
<path stroke-linejoin="round" stroke-width="3" style="stroke:#231F20;stroke:color(display-p3 0.1373 0.1216 0.1255);stroke-opacity:1;" stroke="#231F20" d="M995.753 1391.28C994.371 1390.53 992.646 1391.05 991.901 1392.43L988.846 1398.11C988.101 1399.49 988.62 1401.21 990.002 1401.96C991.384 1402.7 993.108 1402.19 993.853 1400.8L996.908 1395.13C997.653 1393.75 997.136 1392.02 995.753 1391.28Z"></path>
<path stroke-linejoin="round" stroke-width="3" style="stroke:#231F20;stroke:color(display-p3 0.1373 0.1216 0.1255);stroke-opacity:1;" stroke="#231F20" d="M990.622 1414.27C987.555 1429.94 980.626 1458.46 994.257 1464.71L1015.39 1474.82C1018.42 1476.29 1024.69 1477.21 1029.47 1472.43C1032.06 1469.85 1032.06 1465.05 1032.06 1461.29C1032.06 1455.54 1032.93 1444.8 1034.48 1443.35C1036.41 1441.53 1047.3 1432.29 1050.6 1425.85"></path>
<path stroke-linejoin="round" stroke-width="3" style="stroke:#231F20;stroke:color(display-p3 0.1373 0.1216 0.1255);stroke-opacity:1;" stroke="#231F20" d="M1038.07 1390.76L1036.85 1405.22C1036.44 1409.52 1038.31 1416.22 1044.49 1419.79L1058.32 1426.78C1060.4 1427.99 1065.39 1429.08 1068.75 1426.16"></path>
<path stroke-linejoin="round" stroke-width="3" style="stroke:#231F20;stroke:color(display-p3 0.1373 0.1216 0.1255);stroke-opacity:1;" stroke="#231F20" d="M1032.26 1455.75L1064.67 1472.44C1080.81 1481.76 1109.06 1489.06 1124.89 1465.6"></path>
<path stroke-linejoin="round" stroke-width="3" style="stroke:#231F20;stroke:color(display-p3 0.1373 0.1216 0.1255);stroke-opacity:1;" stroke="#231F20" d="M1072.29 1431.76L1066.89 1429.06"></path>
<path stroke-linejoin="round" stroke-width="3" style="stroke:#231F20;stroke:color(display-p3 0.1373 0.1216 0.1255);stroke-opacity:1;" stroke="#231F20" d="M1063.11 1431.56L1072.24 1436.16"></path>
<path stroke-linejoin="round" stroke-width="3" style="stroke:#231F20;stroke:color(display-p3 0.1373 0.1216 0.1255);stroke-opacity:1;" stroke="#231F20" d="M1034.27 1412.93L1009.96 1400.51C1006.35 1398.42 1004.76 1399.72 1002.71 1402.77C993.468 1416.46 988.779 1443.73 995.296 1456.74C995.676 1457.5 997.908 1455.28 998.92 1454.32C1000.18 1453.12 1001.94 1453.15 1004.09 1454.32C1007.18 1456.01 1019.76 1462.16 1020.96 1462.88C1022.16 1463.59 1026.68 1469.14 1026.68 1469.14C1027.65 1470.2 1028.98 1472.32 1025.66 1473.48C1022.33 1474.64 1024.96 1474.64 1026.68 1474.5"></path>
<path stroke-linejoin="round" stroke-width="3" style="stroke:#231F20;stroke:color(display-p3 0.1373 0.1216 0.1255);stroke-opacity:1;" stroke="#231F20" d="M1184.01 1382.28C1185.05 1374.63 1184.61 1360.66 1174.46 1365.97"></path>
<path stroke-linejoin="round" stroke-width="3" style="stroke:#231F20;stroke:color(display-p3 0.1373 0.1216 0.1255);stroke-opacity:1;" stroke="#231F20" d="M1174.6 1379.36L1178.29 1378.63C1181.73 1378.01 1180.69 1386 1177.53 1386.55L1173.94 1387.08C1170.47 1387.36 1172.45 1379.82 1174.6 1379.36Z"></path>
<path stroke-linejoin="round" stroke-width="3" style="stroke:#231F20;stroke:color(display-p3 0.1373 0.1216 0.1255);stroke-opacity:1;" stroke="#231F20" d="M485.06 1011.12V1105.05M554.186 1011.12V1105.05"></path>
<path stroke-linejoin="round" stroke-width="3" style="stroke:#231F20;stroke:color(display-p3 0.1373 0.1216 0.1255);stroke-opacity:1;" stroke="#231F20" d="M1044.95 1011.49V1105.42M1114.08 1011.49V1105.42"></path>
<path style="fill:#525247;fill:color(display-p3 0.3215 0.3215 0.2785);fill-opacity:1;" fill="#525247" d="M824.269 2192.07V2168.17H798.664V2200C818.144 2200 824.269 2195.24 824.269 2192.07Z"></path>
<path style="fill:#525247;fill:color(display-p3 0.3215 0.3215 0.2785);fill-opacity:1;" fill="#525247" d="M773.861 2192.07V2168.17H799.465V2200C779.986 2200 773.861 2195.24 773.861 2192.07Z"></path>
<path style="fill:#525247;fill:color(display-p3 0.3215 0.3215 0.2785);fill-opacity:1;" fill="#525247" d="M741.402 2180.98V2168.42H770.451V2185.4L762.983 2192.87H753.29L741.402 2180.98Z"></path>
<path style="fill:#525247;fill:color(display-p3 0.3215 0.3215 0.2785);fill-opacity:1;" fill="#525247" d="M856.923 2181.34V2168.78H827.875V2185.76L835.343 2193.23H845.036L856.923 2181.34Z"></path>
<path stroke-width="3" style="stroke:#231F20;stroke:color(display-p3 0.1373 0.1216 0.1255);stroke-opacity:1;" stroke="#231F20" d="M741.944 2168.17V2180.73L753.832 2192.62H763.525L770.993 2185.15V2168.17"></path>
<path stroke-width="3" style="stroke:#231F20;stroke:color(display-p3 0.1373 0.1216 0.1255);stroke-opacity:1;" stroke="#231F20" d="M856.999 2168.17V2180.73L845.111 2192.62H835.418L827.95 2185.15V2168.17"></path>
<path stroke-width="3" style="stroke:#231F20;stroke:color(display-p3 0.1373 0.1216 0.1255);stroke-opacity:1;" stroke="#231F20" d="M774.133 2167.93V2191.83C774.133 2195 780.258 2199.76 799.737 2199.76"></path>
<path stroke-width="3" style="stroke:#231F20;stroke:color(display-p3 0.1373 0.1216 0.1255);stroke-opacity:1;" stroke="#231F20" d="M824.811 2167.93V2191.83C824.811 2195 818.686 2199.76 799.207 2199.76"></path>
<path style="fill:#525247;fill:color(display-p3 0.3215 0.3215 0.2785);fill-opacity:1;" fill="#525247" d="M634.777 2192.07V2168.17H609.172V2200C628.652 2200 634.777 2195.24 634.777 2192.07Z"></path>
<path style="fill:#525247;fill:color(display-p3 0.3215 0.3215 0.2785);fill-opacity:1;" fill="#525247" d="M584.369 2192.07V2168.17H609.973V2200C590.494 2200 584.369 2195.24 584.369 2192.07Z"></path>
<path style="fill:#525247;fill:color(display-p3 0.3215 0.3215 0.2785);fill-opacity:1;" fill="#525247" d="M551.91 2180.98V2168.42H580.959V2185.4L573.491 2192.87H563.798L551.91 2180.98Z"></path>
<path style="fill:#525247;fill:color(display-p3 0.3215 0.3215 0.2785);fill-opacity:1;" fill="#525247" d="M667.431 2181.34V2168.78H638.383V2185.76L645.851 2193.23H655.544L667.431 2181.34Z"></path>
<path stroke-width="3" style="stroke:#231F20;stroke:color(display-p3 0.1373 0.1216 0.1255);stroke-opacity:1;" stroke="#231F20" d="M551.91 2168.42V2180.98L563.798 2192.87H573.491L580.959 2185.4V2168.42"></path>
<path stroke-width="3" style="stroke:#231F20;stroke:color(display-p3 0.1373 0.1216 0.1255);stroke-opacity:1;" stroke="#231F20" d="M666.964 2168.42V2180.98L655.077 2192.87H645.383L637.916 2185.4V2168.42"></path>
<path stroke-width="3" style="stroke:#231F20;stroke:color(display-p3 0.1373 0.1216 0.1255);stroke-opacity:1;" stroke="#231F20" d="M584.098 2168.18V2192.07C584.098 2195.24 590.223 2200 609.703 2200"></path>
<path stroke-width="3" style="stroke:#231F20;stroke:color(display-p3 0.1373 0.1216 0.1255);stroke-opacity:1;" stroke="#231F20" d="M634.777 2168.18V2192.07C634.777 2195.24 628.652 2200 609.172 2200"></path>
<path stroke-width="3" style="stroke:#231F20;stroke:color(display-p3 0.1373 0.1216 0.1255);stroke-opacity:1;" stroke="#231F20" d="M634.777 2168.17V2192.07C634.777 2195.24 628.652 2200 609.172 2200"></path>
<path style="fill:#525247;fill:color(display-p3 0.3215 0.3215 0.2785);fill-opacity:1;" fill="#525247" d="M1014.65 2192.07V2168.17H989.042V2200C1008.52 2200 1014.65 2195.24 1014.65 2192.07Z"></path>
<path style="fill:#525247;fill:color(display-p3 0.3215 0.3215 0.2785);fill-opacity:1;" fill="#525247" d="M964.238 2192.07V2168.17H989.842V2200C970.363 2200 964.238 2195.24 964.238 2192.07Z"></path>
<path style="fill:#525247;fill:color(display-p3 0.3215 0.3215 0.2785);fill-opacity:1;" fill="#525247" d="M931.779 2180.98V2168.42H960.828V2185.4L953.36 2192.87H943.667L931.779 2180.98Z"></path>
<path style="fill:#525247;fill:color(display-p3 0.3215 0.3215 0.2785);fill-opacity:1;" fill="#525247" d="M1047.3 2181.34V2168.78H1018.25V2185.76L1025.72 2193.23H1035.41L1047.3 2181.34Z"></path>
<path stroke-width="3" style="stroke:#231F20;stroke:color(display-p3 0.1373 0.1216 0.1255);stroke-opacity:1;" stroke="#231F20" d="M931.979 2168.42V2180.98L943.866 2192.87H953.559L961.027 2185.4V2168.42"></path>
<path stroke-width="3" style="stroke:#231F20;stroke:color(display-p3 0.1373 0.1216 0.1255);stroke-opacity:1;" stroke="#231F20" d="M1047.03 2168.42V2180.98L1035.15 2192.87H1025.45L1017.98 2185.4V2168.42"></path>
<path stroke-width="3" style="stroke:#231F20;stroke:color(display-p3 0.1373 0.1216 0.1255);stroke-opacity:1;" stroke="#231F20" d="M964.167 2168.17V2192.07C964.167 2195.24 970.292 2200 989.771 2200"></path>
<path stroke-width="3" style="stroke:#231F20;stroke:color(display-p3 0.1373 0.1216 0.1255);stroke-opacity:1;" stroke="#231F20" d="M1014.85 2168.17V2192.07C1014.85 2195.24 1008.72 2200 989.241 2200"></path>
</svg>
