<svg xmlns="http://www.w3.org/2000/svg" fill="none" viewBox="0 0 1600 2400" height="2400" width="1600">
<path stroke-width="3" style="fill:#525247;fill:color(display-p3 0.3215 0.3215 0.2785);fill-opacity:1;stroke:black;stroke-opacity:1;" stroke="black" fill="#525247" d="M1291.89 2171.1C1278.55 2187.8 1258.02 2198.5 1234.99 2198.5C1211.96 2198.5 1191.43 2187.8 1178.1 2171.1H1291.89Z"></path>
<path stroke-width="3" style="fill:#525247;fill:color(display-p3 0.3215 0.3215 0.2785);fill-opacity:1;stroke:black;stroke-opacity:1;" stroke="black" fill="#525247" d="M915.742 2171.1C902.407 2187.8 881.876 2198.5 858.846 2198.5C835.815 2198.5 815.283 2187.8 801.948 2171.1H915.742Z"></path>
<path style="fill:#525247;fill:color(display-p3 0.3215 0.3215 0.2785);fill-opacity:1;" fill="#525247" d="M1172.4 1789.77L1171.75 1808.79H1245.2L1244.44 1789.77L1238.68 1784.23H1177.83L1172.4 1789.77Z"></path>
<path style="fill:#525247;fill:color(display-p3 0.3215 0.3215 0.2785);fill-opacity:1;" fill="#525247" d="M1137.54 1801.11H1095.11C1090.61 1801.11 1088.36 1801.11 1086.96 1802.51C1085.56 1803.91 1085.56 1804.25 1085.56 1808.75H1147.08C1147.08 1804.25 1147.08 1803.91 1145.69 1802.51C1144.29 1801.11 1142.04 1801.11 1137.54 1801.11Z"></path>
<path style="fill:white;fill-opacity:1;" fill="white" d="M1385.79 1845.09H1042.74V2169.44H1362.58C1386.45 2154.01 1391.72 2051.68 1391.37 2002.44V1850.66C1391.37 1845.48 1387.65 1844.79 1385.79 1845.09Z"></path>
<path style="fill:white;fill-opacity:1;" fill="white" d="M700.864 1845.09H1043.91V2169.44H724.075C700.201 2154.01 694.935 2051.68 695.287 2002.44V1850.66C695.287 1845.48 699.005 1844.79 700.864 1845.09Z"></path>
<path style="fill:#E2DED4;fill:color(display-p3 0.8863 0.8706 0.8314);fill-opacity:1;" fill="#E2DED4" d="M816.174 1410.81V1202.66L812.189 1096.81L924.235 918.335L964.979 909.035C968.876 910.098 971.031 927.192 971.622 935.607V1411.25H968.522V1598.14H964.979V1808.95H823.26V1598.14H818.832V1410.81H816.174Z"></path>
<path style="fill:white;fill-opacity:1;" fill="white" d="M341.233 1296.68L316.568 1306.26C313.773 1307.54 311.85 1309.26 310.065 1312.49L301.825 1326.63L298.46 1332.86L243.101 1365.63C217.946 1382.29 215.791 1402.98 217.857 1411.25C213.429 1414.35 205.014 1436.05 213.429 1451.11C220.16 1463.15 241.92 1461.74 251.958 1459.52L279.859 1447.12L297.131 1440.04L300.231 1440.92L332.75 1421.57C331.87 1424.72 333.116 1429.17 333.849 1431L348.46 1457.39C350.22 1460.16 354.535 1466.19 356.473 1468.86C363.385 1472.42 376.422 1479.22 380.255 1480.42C388.81 1483.1 389.807 1481.31 414.759 1453.94C428.218 1438.11 443.109 1418.08 428.113 1393.14L380.824 1311.44C368.633 1290.96 352.156 1291.82 341.233 1296.68Z"></path>
<path style="fill:#E2DED4;fill:color(display-p3 0.8863 0.8706 0.8314);fill-opacity:1;" fill="#E2DED4" d="M299.788 1337.73C295.182 1326.04 310.86 1317.21 319.274 1314.26L343.632 1355.45C349.39 1360.32 345.404 1368.73 345.404 1369.62C345.404 1370.33 340.385 1379.07 337.875 1383.35C335.041 1386.54 328.132 1384.09 325.032 1382.46L313.074 1361.2H311.303L306.874 1354.56L304.66 1348.36L299.788 1337.73Z"></path>
<path style="fill:#525247;fill:color(display-p3 0.3215 0.3215 0.2785);fill-opacity:1;" fill="#525247" d="M269.918 1455.85C275.402 1466.52 283.751 1472.13 293.145 1474.48C307.465 1466.39 336.547 1447.92 338.318 1438.71L332.118 1422.32L290.045 1444.02L265.687 1452.88C259.34 1457.31 241.861 1464.84 222.729 1459.52C227.962 1462.81 238.477 1469.37 251.073 1463.95L269.918 1455.85Z"></path>
<path style="fill:white;fill-opacity:1;" fill="white" d="M328.575 1450.22C327.512 1453.41 304.512 1467.79 293.145 1474.58C313.34 1479.54 340.237 1468.38 351.161 1462.18L337.875 1439.15L328.575 1450.22Z"></path>
<path style="fill:#E2DED4;fill:color(display-p3 0.8863 0.8706 0.8314);fill-opacity:1;stroke:black;stroke-opacity:1;" stroke="black" fill="#E2DED4" d="M383.491 1315.15L399.877 1342.6C394.208 1328.08 399.286 1320.31 402.534 1318.25L471.179 1276.62C477.911 1263.86 457.155 1271.3 445.935 1276.62C428.663 1286.21 393.677 1305.67 391.905 1306.73C390.134 1307.79 385.557 1312.78 383.491 1315.15Z"></path>
<path style="fill:#E2DED4;fill:color(display-p3 0.8863 0.8706 0.8314);fill-opacity:1;" fill="#E2DED4" d="M498.444 1282.11L501.557 1287.22L524.84 1328.06L533.265 1342.38C539.548 1353.13 532.699 1360.83 526.708 1364.66L476.033 1394.17C466.271 1399.45 457.89 1395.98 454.866 1391.18L418.509 1328.06C410.033 1313.74 420.562 1306.42 427.847 1302.28L471.799 1277.01C487.539 1267.84 492.776 1273.95 498.444 1282.11Z"></path>
<path style="fill:white;fill-opacity:1;" fill="white" d="M515.466 1235.87C505.191 1241.9 506.461 1248.42 508.38 1250.93L559.31 1340.39C562.853 1345.7 568.758 1344.38 571.267 1343.05L716.529 1259.34V1254.47L722.729 1255.8L813.074 1203.99C843.189 1183.08 845.994 1159.26 843.632 1149.96C844.695 1137.91 837.875 1136.37 834.332 1137.11L766.13 1108.33L743.101 1105.67L663.384 1150.84L660.727 1157.04L654.97 1155.71L515.466 1235.87Z"></path>
<path style="fill:white;fill-opacity:1;" fill="white" d="M720.153 621.912V786.36H794.031V1004.69C795.36 1006.76 798.725 1011.34 801.56 1013.11C804.394 1014.88 847.913 1054 869.319 1073.34L873.747 1067.14C874.338 1070.09 876.936 1075.73 882.605 1074.67C889.691 1073.34 926.449 1063.15 928.663 1015.77V877.591L925.12 874.048L928.663 870.062V786.36H1001.74V593.268L995.094 567.582L989.484 550.31V545.133C974.958 516.818 946.639 483.404 861.726 483.404C738.202 483.404 720.153 553.627 720.153 621.912Z"></path>
<path style="fill:#525247;fill:color(display-p3 0.3215 0.3215 0.2785);fill-opacity:1;" fill="#525247" d="M861.416 523.966C915.201 523.966 958.802 567.568 958.802 621.353C958.802 648.664 947.56 673.349 929.451 691.034L928.22 691.042V626.483C928.663 617.921 924.854 600.088 906.077 597.253C902.534 592.825 895.449 596.19 893.677 597.253L892.348 567.137L886.148 565.809L861.347 564.068V564.038L861.126 564.052L860.904 564.038V564.068L836.104 565.809L830.79 568.023L829.904 597.253C828.133 596.191 819.718 592.825 816.175 597.253C797.397 600.088 793.588 617.921 794.031 626.483V691.661C775.542 673.935 764.029 648.989 764.029 621.353C764.029 567.568 807.631 523.966 861.416 523.966Z"></path>
<path style="fill:#E2DED4;fill:color(display-p3 0.8863 0.8706 0.8314);fill-opacity:1;" fill="#E2DED4" d="M831.614 566.804C833.771 565.03 847.01 563.482 861.489 563.482L861.448 705.909H837.122C832.415 705.909 829.62 701.73 829.62 696.805V582.433C829.62 576.629 829.955 568.167 831.614 566.804Z"></path>
<path style="fill:#E2DED4;fill:color(display-p3 0.8863 0.8706 0.8314);fill-opacity:1;" fill="#E2DED4" d="M891.665 566.804C889.508 565.03 876.27 563.482 861.79 563.482L861.831 705.909H886.157C890.864 705.909 893.659 701.73 893.659 696.805V582.433C893.659 576.629 893.324 568.167 891.665 566.804Z"></path>
<path stroke-linejoin="round" stroke-width="3" style="fill:#E2DED4;fill:color(display-p3 0.8863 0.8706 0.8314);fill-opacity:1;stroke:black;stroke-opacity:1;" stroke="black" fill="#E2DED4" d="M907.665 458.266V478.897C861.814 472.785 826.976 476.35 815.289 478.897V451.107L902.358 424.705C904.092 427.695 907.665 442.345 907.665 458.266Z"></path>
<path style="fill:#525247;fill:color(display-p3 0.3215 0.3215 0.2785);fill-opacity:1;" fill="#525247" d="M708.782 286.616L715.463 278.51L680.436 271.632C680.279 272.065 680.731 273.417 680.977 274.039L696.746 289.661C700.322 292.373 705.982 290.005 708.782 286.616Z"></path>
<path style="fill:white;fill-opacity:1;" fill="white" d="M795.338 457.352C761.471 454.323 746.283 425.739 746.283 368.302V361.734V308.647V284.697L933.448 320.817V370.828C933.448 400.287 924.994 417.384 918.545 419.577L795.338 457.352Z"></path>
<path stroke-linejoin="round" stroke-width="3" style="stroke:black;stroke-opacity:1;" stroke="black" d="M746.283 284.698V308.648M933.448 320.817C933.448 335.367 933.448 353.784 933.448 370.829C933.448 400.287 924.994 417.384 918.545 419.577L795.338 457.353C761.471 454.323 746.283 425.74 746.283 368.303V361.735M933.448 320.817C933.448 311.563 933.448 303.874 933.448 299.095C933.448 264.6 927.541 241.186 897.177 221.001C857.844 194.854 786.665 188.12 759.165 230.14L671.013 255.398L668.235 269.29L933.448 320.817Z"></path>
<path stroke-linejoin="round" stroke-width="3" style="fill:black;fill-opacity:1;stroke:black;stroke-opacity:1;" stroke="black" fill="black" d="M745.403 313.511V355.916C745.403 363.339 750.027 372.843 750.027 355.916V313.511C750.027 298.128 745.403 307.646 745.403 313.511Z"></path>
<path stroke-linejoin="round" stroke-width="3" style="stroke:black;stroke-opacity:1;" stroke="black" d="M671.061 255.383L848.334 289.794L759.569 230.215"></path>
<path stroke-linejoin="round" stroke-width="3" style="stroke:black;stroke-opacity:1;" stroke="black" d="M715.463 278.51L708.782 286.616C705.982 290.005 700.322 292.373 696.746 289.661L680.977 274.039C680.731 273.417 680.279 272.065 680.436 271.632"></path>
<path stroke-linejoin="round" stroke-width="3" style="stroke:black;stroke-opacity:1;" stroke="black" d="M681.754 274.594C681.492 279.196 684.411 288.953 696.64 289.656"></path>
<path stroke-linejoin="round" stroke-width="3" style="fill:white;fill-opacity:1;stroke:black;stroke-opacity:1;" stroke="black" fill="white" d="M681.754 274.594C681.492 279.196 684.411 288.953 696.64 289.656L681.754 274.594Z"></path>
<path stroke-linejoin="round" stroke-width="3" style="stroke:black;stroke-opacity:1;" stroke="black" d="M815.277 451.242V478.899"></path>
<path stroke-linejoin="round" stroke-width="3" style="stroke:black;stroke-opacity:1;" stroke="black" d="M800.783 490.064V486.435C800.857 484.781 801.382 482.266 805.306 481.176C809.881 479.905 819.468 476.274 861.598 476.274C897.886 476.274 913.369 479.991 917.887 481.176C921.502 482.124 922.159 484.583 922.035 485.694V489.916"></path>
<path stroke-linejoin="round" stroke-width="3" style="stroke:black;stroke-opacity:1;" stroke="black" d="M989.484 545.133C974.957 516.818 946.639 483.404 861.726 483.404C738.202 483.404 720.153 553.627 720.153 621.912V792.862C720.153 904.839 726.119 915.531 794.221 916.968"></path>
<path stroke-linejoin="round" stroke-width="3" style="stroke:black;stroke-opacity:1;" stroke="black" d="M928.569 916.969C991.824 903.436 1002.64 904.84 1002.64 792.862C1002.64 792.862 1002.64 688.673 1002.64 621.913C1002.74 613.177 1002.66 594.626 1001.54 590.312"></path>
<path stroke-linejoin="round" stroke-width="3" style="stroke:black;stroke-opacity:1;" stroke="black" d="M989.02 546.829C989.944 549.477 997.055 572.846 1000.27 588.927C1000.45 589.829 1000.6 590.814 1002.57 589.776C1004.17 588.927 1001.46 576.761 999.355 567.62C997.449 559.36 992.651 548.6 992.08 547.28C991.261 545.385 988.096 544.181 989.02 546.829Z"></path>
<path stroke-linejoin="round" stroke-width="3" style="stroke:black;stroke-opacity:1;" stroke="black" d="M794.163 699.57C772.182 680.653 758.264 652.628 758.264 621.353C758.264 564.383 804.447 518.2 861.416 518.2C918.386 518.2 964.569 564.383 964.569 621.353C964.569 652.368 950.881 680.185 929.217 699.095"></path>
<path stroke-linejoin="round" stroke-width="3" style="stroke:black;stroke-opacity:1;" stroke="black" d="M794.324 691.943C775.663 674.201 764.029 649.136 764.029 621.353C764.029 567.568 807.631 523.966 861.416 523.966C915.201 523.966 958.803 567.568 958.803 621.353C958.803 648.664 947.561 673.35 929.451 691.034"></path>
<path stroke-linejoin="round" stroke-width="3" style="stroke:black;stroke-opacity:1;" stroke="black" d="M861.489 563.482C847.01 563.482 833.771 565.03 831.614 566.804C829.955 568.167 829.62 576.629 829.62 582.433L829.62 696.805C829.62 701.73 832.415 705.909 837.122 705.909C841.829 705.909 861.448 705.909 861.448 705.909"></path>
<path stroke-linejoin="round" stroke-width="3" style="stroke:black;stroke-opacity:1;" stroke="black" d="M861.407 563.482C875.887 563.482 889.125 565.03 891.282 566.804C892.941 568.167 893.276 576.629 893.276 582.433L893.276 696.805C893.276 701.73 890.481 705.909 885.774 705.909C881.067 705.909 861.449 705.909 861.449 705.909"></path>
<path stroke-linejoin="round" stroke-width="3" style="stroke:black;stroke-opacity:1;" stroke="black" d="M829.805 599.727C829.237 598.231 827.339 595.49 824.241 595.598C798.662 596.496 794.174 612.382 794.174 635.986V867.684C794.174 871.875 795.399 874.077 799.945 874.077H861.298"></path>
<path stroke-linejoin="round" stroke-width="3" style="stroke:black;stroke-opacity:1;" stroke="black" d="M893.091 599.727C893.66 598.231 895.557 595.49 898.656 595.598C924.235 596.496 928.722 612.382 928.722 635.986V867.684C928.722 871.875 927.498 874.077 922.952 874.077H861.598"></path>
<path stroke-linejoin="round" stroke-width="3" style="stroke:black;stroke-opacity:1;" stroke="black" d="M799.945 874.113C795.399 874.113 794.174 876.315 794.174 880.506V1002.49C794.174 1011.6 798.546 1011.6 805.686 1011.6"></path>
<path stroke-linejoin="round" stroke-width="3" style="stroke:black;stroke-opacity:1;" stroke="black" d="M922.953 874.112C927.499 874.112 928.723 876.314 928.723 880.505L928.723 1010.72C928.723 1030.75 922.087 1066.92 881.624 1074.36C879.117 1074.66 875.781 1073.82 873.533 1065.16"></path>
<path stroke-linejoin="round" stroke-width="3" style="stroke:black;stroke-opacity:1;" stroke="black" d="M829.576 584.662C825.919 586.361 820.048 591.996 817.369 596.405"></path>
<path stroke-linejoin="round" stroke-width="3" style="stroke:black;stroke-opacity:1;" stroke="black" d="M893.321 584.662C896.977 586.361 902.849 591.996 905.527 596.405"></path>
<circle stroke-linejoin="round" stroke-width="3" style="fill:#E2DED4;fill:color(display-p3 0.8863 0.8706 0.8314);fill-opacity:1;stroke:black;stroke-opacity:1;" stroke="black" fill="#E2DED4" r="63.6499" cy="1076.15" cx="809.78"></circle>
<path stroke-linejoin="round" stroke-width="3" style="stroke:black;stroke-opacity:1;" stroke="black" d="M720.073 786.227H794.355"></path>
<path stroke-linejoin="round" stroke-width="3" style="stroke:black;stroke-opacity:1;" stroke="black" d="M928.449 786.227H1002.73"></path>
<path stroke-linejoin="round" stroke-width="3" style="stroke:black;stroke-opacity:1;" stroke="black" d="M861.494 563.536V980.175C861.494 1012.49 854.383 1018.99 849.899 1025.33"></path>
<path stroke-linejoin="round" stroke-width="3" style="stroke:black;stroke-opacity:1;" stroke="black" d="M755.914 1111.99C754.306 1108.4 749.073 1102.28 741.011 1106.6L666.161 1149.75C661.842 1152.11 659.487 1153.93 662.984 1160.14L716.148 1252.58C717.725 1255.04 720.065 1257.66 726.083 1254.14L810.254 1205.17C848.862 1183.15 845.612 1146.73 841.816 1139.82C840.2 1136.88 834.499 1135.98 830.817 1137.42"></path>
<path stroke-linejoin="round" stroke-width="3" style="fill:#E2DED4;fill:color(display-p3 0.8863 0.8706 0.8314);fill-opacity:1;stroke:black;stroke-opacity:1;" stroke="black" fill="#E2DED4" d="M462.198 1311.22L553.807 1258.33C564.044 1252.42 577.135 1255.93 583.045 1266.17L583.805 1267.48C589.715 1277.72 586.208 1290.81 575.97 1296.72L484.362 1349.61C474.124 1355.52 461.034 1352.02 455.123 1341.78L454.364 1340.46C448.453 1330.23 451.961 1317.13 462.198 1311.22Z"></path>
<path stroke-linejoin="round" stroke-width="3" style="stroke:black;stroke-opacity:1;" stroke="black" d="M522.795 1275.44L507.765 1249.14C505.813 1245.26 506.03 1242.09 512.349 1238.69L654.059 1156.71C656.487 1155.35 659.415 1154.2 662.535 1159.26"></path>
<path stroke-linejoin="round" stroke-width="3" style="stroke:black;stroke-opacity:1;" stroke="black" d="M545.506 1315.13L560.771 1341.29C563.155 1344.93 566.006 1346.32 572.109 1342.55L713.965 1260.82C716.355 1259.39 718.814 1257.43 715.99 1252.2"></path>
<path stroke-linejoin="round" stroke-width="3" style="stroke:black;stroke-opacity:1;" stroke="black" d="M584.499 1266.31L760.938 1164.74C772.995 1157.78 781.658 1147.39 785.759 1136.28"></path>
<path stroke-linejoin="round" stroke-width="3" style="stroke:black;stroke-opacity:1;" stroke="black" d="M501.557 1287.22L498.444 1282.11C492.776 1273.95 487.539 1267.84 471.799 1277.01L427.847 1302.28C420.562 1306.42 410.033 1313.74 418.509 1328.06L454.866 1391.18C457.89 1395.98 466.271 1399.45 476.033 1394.17L526.708 1364.66C532.699 1360.83 539.548 1353.13 533.265 1342.38L524.84 1328.06"></path>
<path stroke-linejoin="round" stroke-width="3" style="stroke:black;stroke-opacity:1;" stroke="black" d="M418.618 1328.07L498.205 1281.91"></path>
<path stroke-linejoin="round" stroke-width="3" style="stroke:black;stroke-opacity:1;" stroke="black" d="M450.204 1382.61L529.791 1336.45"></path>
<path stroke-linejoin="round" stroke-width="3" style="stroke:black;stroke-opacity:1;" stroke="black" d="M332.75 1421.57C331.87 1424.72 333.116 1429.17 333.849 1431L348.46 1457.39C350.22 1460.16 354.535 1466.19 356.473 1468.86C363.385 1472.42 376.422 1479.22 380.255 1480.42C388.81 1483.1 389.807 1481.31 414.759 1453.94C428.218 1438.11 443.109 1418.08 428.113 1393.14L380.824 1311.44C368.633 1290.96 352.156 1291.82 341.233 1296.68L316.568 1306.26C313.773 1307.54 311.85 1309.26 310.065 1312.49L301.825 1326.63"></path>
<path stroke-linejoin="round" stroke-width="3" style="stroke:black;stroke-opacity:1;" stroke="black" d="M382.672 1315.1C384.515 1313.22 389.307 1308.82 393.731 1306.3L439.204 1279.78C466.292 1263.02 480.844 1271.64 469.916 1278.01"></path>
<path stroke-linejoin="round" stroke-width="3" style="stroke:black;stroke-opacity:1;" stroke="black" d="M425.176 1303.9L404.326 1316.26C398.522 1319.92 393.686 1328.3 400.887 1342.06L412.601 1362.37C414.751 1365.74 419.071 1373.55 419.157 1377.85"></path>
<path stroke-linejoin="round" stroke-width="3" style="stroke:black;stroke-opacity:1;" stroke="black" d="M351.693 1461.65C335.729 1471.72 287.726 1490.5 269.917 1455.85"></path>
<path stroke-linejoin="round" stroke-width="3" style="fill:#E2DED4;fill:color(display-p3 0.8863 0.8706 0.8314);fill-opacity:1;stroke:black;stroke-opacity:1;" stroke="black" fill="#E2DED4" d="M364.207 1388.01C365.137 1392.52 368.907 1398.17 370.892 1401.48C386.599 1421.62 402.842 1413.39 406.297 1407.01L412.25 1396.47C416.344 1389.61 415.056 1379.04 412.25 1374.74L401.597 1356.67C398.568 1352.11 389.378 1344.66 376.845 1351.35C361.179 1359.7 362.843 1381.38 364.207 1388.01Z"></path>
<path stroke-linejoin="round" stroke-width="3" style="fill:#525247;fill:color(display-p3 0.3215 0.3215 0.2785);fill-opacity:1;stroke:black;stroke-opacity:1;" stroke="black" fill="#525247" d="M366.75 1391.02C368.857 1394.86 370.834 1399.46 376.57 1405.66C390.605 1420.84 403.081 1408.69 399.452 1402.57C396.993 1398.42 392.394 1389.88 391.403 1387.1C390.611 1384.88 390.419 1382.88 390.005 1379.98C389.675 1377.67 386.306 1362.07 372.697 1365.38C361.81 1368.02 364.643 1387.18 366.75 1391.02Z"></path>
<path stroke-linejoin="round" stroke-width="3" style="fill:white;fill-opacity:1;stroke:black;stroke-opacity:1;" stroke="black" fill="white" d="M386.878 1399C388.861 1399.94 390.329 1401.33 391.132 1402.76C391.938 1404.19 392.021 1405.52 391.539 1406.54C391.056 1407.56 389.974 1408.34 388.359 1408.63C386.749 1408.91 384.741 1408.66 382.758 1407.73C380.775 1406.79 379.306 1405.4 378.503 1403.97C377.697 1402.54 377.614 1401.21 378.096 1400.19C378.579 1399.17 379.662 1398.39 381.276 1398.1C382.887 1397.82 384.895 1398.07 386.878 1399Z"></path>
<path stroke-linejoin="round" stroke-width="3" style="fill:white;fill-opacity:1;stroke:black;stroke-opacity:1;" stroke="black" fill="white" d="M379.337 1378.88L373.699 1379.57C368.817 1380.53 371.292 1387.75 375.693 1387.34L380.643 1386.58C385.387 1385.69 383.118 1378.33 379.337 1378.88Z"></path>
<path stroke-linejoin="round" stroke-width="3" style="stroke:black;stroke-opacity:1;" stroke="black" d="M307.208 1320.54L311.904 1312.4C313.101 1310.88 315.965 1308.56 317.843 1311.43L344.637 1357.56C346.203 1359.68 348.228 1365.57 343.809 1372.2C338.284 1380.49 332.069 1392.5 337.593 1405.62L352.095 1440.29C353.477 1444.66 355.714 1455.59 353.615 1464.32"></path>
<path stroke-linejoin="round" stroke-width="3" style="stroke:black;stroke-opacity:1;" stroke="black" d="M319.018 1313.47C308.115 1317.05 295.008 1330.36 299.836 1339.35L303.763 1346C305.243 1348.81 305.573 1352.4 304.769 1353.88M304.769 1353.88C305.213 1353.5 306.172 1352.97 306.454 1353.88C306.735 1354.78 309.293 1359.08 310.537 1361.13C311.053 1360.94 312.156 1360.68 312.438 1361.13C312.719 1361.58 320.439 1375.02 324.264 1381.68C325.414 1383.56 329.699 1386.5 337.64 1383.23M304.769 1353.88L253.389 1383.47L252.825 1384.64L251.87 1384.38C231.865 1394.84 196.499 1422.26 213.478 1450.66C229.71 1477.8 256.836 1462.7 279.43 1450.32"></path>
<path stroke-linejoin="round" stroke-width="3" style="stroke:black;stroke-opacity:1;" stroke="black" d="M312.005 1360.94C312.602 1355.46 317.591 1343.08 332.768 1337.4"></path>
<path stroke-linejoin="round" stroke-width="3" style="fill:#E2DED4;fill:color(display-p3 0.8863 0.8706 0.8314);fill-opacity:1;stroke:black;stroke-opacity:1;" stroke="black" fill="#E2DED4" d="M280.564 1423.8C288.234 1422.19 295.498 1426.72 296.955 1433.68C298.411 1440.63 293.575 1447.69 285.905 1449.3C278.235 1450.91 270.971 1446.37 269.515 1439.42C268.059 1432.47 272.894 1425.41 280.564 1423.8Z"></path>
<path stroke-linejoin="round" stroke-width="3" style="stroke:black;stroke-opacity:1;" stroke="black" d="M299.05 1332.94L245.931 1363.71L245.583 1364.82L244.678 1364.57C231.432 1373.09 216.616 1384.02 216.616 1413.38"></path>
<path stroke-linejoin="round" stroke-width="3" style="stroke:black;stroke-opacity:1;" stroke="black" d="M252.86 1384.71L275.81 1424.39"></path>
<path stroke-linejoin="round" stroke-width="3" style="stroke:black;stroke-opacity:1;" stroke="black" d="M275.233 1448.69C227.254 1476.95 213.473 1454.08 209.077 1437.28"></path>
<path stroke-linejoin="round" stroke-width="3" style="stroke:black;stroke-opacity:1;" stroke="black" d="M342.094 1416.14L300.456 1439.96H297.638"></path>
<path stroke-linejoin="round" stroke-width="3" style="stroke:black;stroke-opacity:1;" stroke="black" d="M292.288 1474.38C304.812 1468.08 331.538 1452.12 338.247 1438.71"></path>
<path stroke-linejoin="round" stroke-width="3" style="stroke:black;stroke-opacity:1;" stroke="black" d="M964.495 908.218C966.242 910.329 970.579 917.297 971.058 931.042V1411.11L815.285 1410.98V1202.28"></path>
<path stroke-linejoin="round" stroke-width="3" style="stroke:black;stroke-opacity:1;" stroke="black" d="M818.679 1411.04V1598.14H968.17V1411.04"></path>
<path stroke-linejoin="round" stroke-width="3" style="stroke:black;stroke-opacity:1;" stroke="black" d="M822.861 1598.32V1808.95"></path>
<path stroke-linejoin="round" stroke-width="3" style="stroke:black;stroke-opacity:1;" stroke="black" d="M964.589 1598.1V1808.73"></path>
<path stroke-linejoin="round" stroke-width="3" style="stroke:black;stroke-opacity:1;" stroke="black" d="M715.285 1845.38C724.431 1833.18 747.274 1808.79 816.43 1808.79H1044.31"></path>
<path stroke-linejoin="round" stroke-width="3" style="stroke:black;stroke-opacity:1;" stroke="black" d="M1371.37 1845.38C1362.22 1833.18 1339.38 1808.79 1270.22 1808.79H1042.35"></path>
<path stroke-linejoin="round" stroke-width="3" style="stroke:black;stroke-opacity:1;" stroke="black" d="M1208.26 1809.1L1208.26 2169"></path>
<path stroke-linejoin="round" stroke-width="3" style="stroke:black;stroke-opacity:1;" stroke="black" d="M1043.91 1845.09H700.862C699.003 1844.79 695.285 1845.48 695.285 1850.66V2002.44C694.933 2051.68 700.199 2154.01 724.073 2169.44H1043.91"></path>
<path stroke-linejoin="round" stroke-width="3" style="stroke:black;stroke-opacity:1;" stroke="black" d="M1042.74 1845.09H1385.79C1387.65 1844.79 1391.37 1845.48 1391.37 1850.66V2002.44C1391.72 2051.68 1386.45 2154.01 1362.58 2169.44H1042.74"></path>
<path stroke-linejoin="round" stroke-width="3" style="stroke:black;stroke-opacity:1;" stroke="black" d="M1147.08 1808.75C1147.08 1804.25 1147.08 1803.91 1145.69 1802.51C1144.29 1801.11 1142.04 1801.11 1137.54 1801.11H1095.11C1090.61 1801.11 1088.36 1801.11 1086.96 1802.51C1085.56 1803.91 1085.56 1804.25 1085.56 1808.75"></path>
<path stroke-linejoin="round" stroke-width="3" style="stroke:black;stroke-opacity:1;" stroke="black" d="M1171.75 1808.79L1172.4 1789.77L1177.83 1784.23H1238.68L1244.44 1789.77L1245.2 1808.79"></path>
<path stroke-width="3" style="stroke:black;stroke-opacity:1;" stroke="black" d="M1181.96 2170C1191.2 2183.46 1208.25 2192.49 1227.76 2192.49C1247.28 2192.49 1264.33 2183.45 1273.57 2169.99"></path>
<path stroke-width="3" style="stroke:black;stroke-opacity:1;" stroke="black" d="M805.814 2170C815.052 2183.46 832.105 2192.49 851.614 2192.49C871.129 2192.49 888.186 2183.45 897.422 2169.99"></path>
</svg>
