<svg xmlns="http://www.w3.org/2000/svg" fill="none" viewBox="0 0 2200 2600" height="2600" width="2200">
<path stroke-linejoin="round" stroke-width="3" style="fill:white;fill-opacity:1;stroke:#231F20;stroke:color(display-p3 0.1373 0.1216 0.1255);stroke-opacity:1;" stroke="#231F20" fill="white" d="M930.949 1637.45L1076.17 1552.74L1063.08 1574.49L929.792 1653.65C901.907 1669.39 855.581 1711.58 893.361 1754.39L1018.85 1835.8L1178.96 1926.65C1233.38 1956.34 1328.64 1998.26 1443.42 1923.06L1676.4 1788.13C1718.98 1769.02 1779.58 1715.17 1681.35 1652.65L1420.93 1501.63C1397.25 1490.38 1344.74 1468.52 1324.23 1471.04L1332.32 1461.52C1363.51 1462.23 1415.82 1484.82 1426.22 1489.78C1436.62 1494.74 1673.45 1631.14 1707.85 1652.65C1760.53 1685.58 1753.83 1726.45 1753.83 1734.26V1818.61C1753.83 1959.9 1753.83 2004.47 1668.19 2060.65L1418.83 2204.81C1321.35 2259.7 1229.82 2227.68 1196.23 2204.81L942.778 2059.71C855.628 2009.1 860.011 1918.81 860.011 1800.99V1723.57C860.011 1679.63 898.111 1655.92 930.949 1637.45Z"></path>
<path stroke-linejoin="round" stroke-width="3" style="fill:#525247;fill:color(display-p3 0.3215 0.3215 0.2785);fill-opacity:1;stroke:#231F20;stroke:color(display-p3 0.1373 0.1216 0.1255);stroke-opacity:1;" stroke="#231F20" fill="#525247" d="M1154.88 1815.75L1094.75 1780.9L1108.35 1772.38L1166.37 1806.12C1182.2 1813.31 1196.35 1809.12 1201.45 1806.12L1284.15 1758.89V1628.41L1404.6 1558.99C1426.13 1546.49 1448.04 1554.54 1456.3 1560.12L1529.7 1602.08C1552.58 1615.26 1540.13 1626.26 1531.25 1631.37L1214.11 1814.25C1190.54 1827.95 1164.8 1820.96 1154.88 1815.75Z"></path>
<path style="fill:#E2DED4;fill:color(display-p3 0.8863 0.8706 0.8314);fill-opacity:1;stroke:#231F20;stroke:color(display-p3 0.1373 0.1216 0.1255);stroke-opacity:1;" stroke="#231F20" fill="#E2DED4" d="M1101.15 1487.23L1106.1 1741.8L1109.25 1771.49L1162.32 1803.42C1184.27 1814.21 1199.35 1808.82 1204.6 1804.32L1284.21 1758.44V1594.73L1286.01 1585.73V1518.72L1101.15 1487.23Z"></path>
<path stroke-linejoin="round" stroke-width="3" style="fill:#E2DED4;fill:color(display-p3 0.8863 0.8706 0.8314);fill-opacity:1;stroke:#231F20;stroke:color(display-p3 0.1373 0.1216 0.1255);stroke-opacity:1;" stroke="#231F20" fill="#E2DED4" d="M1244.14 1054.8C1184.46 1087.97 1147.92 1077.44 1101.32 1051.66L1098 1049.16V1411.22C1097.1 1412.72 1096.56 1416.62 1101.6 1420.22V1506.57L1188.41 1395.48L1195.15 1393.68L1196.5 1387.39L1257.22 1310.48H1263.52L1308.49 1180.05L1296.25 1024.42L1244.14 1054.8Z"></path>
<path stroke-linejoin="round" stroke-width="3" style="fill:#E2DED4;fill:color(display-p3 0.8863 0.8706 0.8314);fill-opacity:1;stroke:#231F20;stroke:color(display-p3 0.1373 0.1216 0.1255);stroke-opacity:1;" stroke="#231F20" fill="#E2DED4" d="M636.852 1540.91C636.358 1539.43 634.591 1537.84 633.768 1537.23C631.671 1537.23 636.978 1528.72 640.917 1525.24C648.249 1518.77 668.287 1509.08 684.216 1525.24C700.476 1541.74 682.227 1556.11 678.78 1558.63C673.803 1562.26 665.345 1564.59 662.631 1563.97C659.917 1563.36 652.27 1561.89 649.803 1561.27C647.336 1560.66 644.129 1558.57 644.253 1557.59C644.351 1556.81 643.471 1554.98 643.019 1554.16L636.852 1540.91Z"></path>
<path stroke-linejoin="round" stroke-width="3" style="fill:#525247;fill:color(display-p3 0.3215 0.3215 0.2785);fill-opacity:1;stroke:#231F20;stroke:color(display-p3 0.1373 0.1216 0.1255);stroke-opacity:1;" stroke="#231F20" fill="#525247" d="M659.668 1545.75C650.232 1528.65 635.208 1533.47 633.294 1536.53L637.896 1543.45L644.193 1556.05L645.992 1560.55L650.16 1561.62C652.28 1561.11 657.752 1561.63 659.038 1561.82C660.323 1562.01 670.886 1566.08 659.668 1545.75Z"></path>
<path stroke-linejoin="round" stroke-width="3" style="fill:#525247;fill:color(display-p3 0.3215 0.3215 0.2785);fill-opacity:1;stroke:#231F20;stroke:color(display-p3 0.1373 0.1216 0.1255);stroke-opacity:1;" stroke="#231F20" fill="#525247" d="M497.614 1592.8C491.844 1602.03 488.775 1610.92 477.759 1610.85C471.184 1610.8 464.609 1606.65 459.175 1600.12L494.421 1585.28L497.614 1592.8Z"></path>
<path stroke-linejoin="round" stroke-width="3" style="fill:#525247;fill:color(display-p3 0.3215 0.3215 0.2785);fill-opacity:1;stroke:#231F20;stroke:color(display-p3 0.1373 0.1216 0.1255);stroke-opacity:1;" stroke="#231F20" fill="#525247" d="M501.685 1600.76C499.461 1598.33 494.006 1583.68 493.868 1568.25L536.249 1566.81H539.564C539.564 1568.45 533.96 1576.47 531.537 1579.58C529.611 1582.05 521.492 1598.55 519.61 1600.76C516.51 1604.4 503.011 1602.21 501.685 1600.76Z"></path>
<path stroke-linejoin="round" stroke-width="3" style="fill:white;fill-opacity:1;stroke:#231F20;stroke:color(display-p3 0.1373 0.1216 0.1255);stroke-opacity:1;" stroke="#231F20" fill="white" d="M514.739 1437.59C505.526 1446.78 504.387 1464.53 504.707 1472.86L455.291 1535.81C446.896 1546.75 436.581 1575.57 462.487 1603.27L474.181 1605.52C477.18 1605.07 483.716 1603.18 485.875 1599.23C488.034 1595.27 493.671 1586.48 496.22 1582.58L499.818 1599.23L513.311 1600.12L536.249 1565.94L553.34 1550.2H557.388L562.346 1543.45L612.709 1554.7C616.757 1553.5 625.482 1552.9 628.001 1560.1C631.149 1569.09 626.651 1594.28 612.709 1608.67L592.919 1628.01C602.664 1628.16 624.762 1624.14 635.197 1606.87C645.631 1589.6 646.141 1590.98 645.092 1593.83L662.183 1563.69L652.738 1561.9L645.092 1558.75L642.843 1553.35L635.197 1539.41L633.398 1535.36C636.396 1529.64 644.732 1518.19 654.087 1518.19L662.183 1516.47L675.026 1518.19C682.795 1491.16 669.797 1478.37 657.312 1467.14L617.827 1429.44C611.85 1423.93 603.065 1420.4 598.69 1419.38L567.563 1412.17C549.635 1408.02 535.264 1417.5 530.319 1422.76L514.739 1437.59Z"></path>
<path style="fill:#E2DED4;fill:color(display-p3 0.8863 0.8706 0.8314);fill-opacity:1;stroke:#231F20;stroke:color(display-p3 0.1373 0.1216 0.1255);stroke-opacity:1;" stroke="#231F20" fill="#E2DED4" d="M518.258 1443.16C507.104 1448.19 505.515 1465.05 506.114 1472.84V1474.64L530.402 1480.49V1482.29L535.349 1483.19L542.545 1488.13L546.593 1485.44C547.493 1485.58 550.101 1486.06 553.34 1486.78C556.578 1487.5 564.584 1483.49 568.182 1481.39C568.182 1479.44 568.722 1473.38 570.881 1464.75C573.039 1456.11 567.882 1453.35 565.034 1453.05L518.258 1443.16Z"></path>
<path stroke-linejoin="round" stroke-width="3" style="fill:#525247;fill:color(display-p3 0.3215 0.3215 0.2785);fill-opacity:1;stroke:#231F20;stroke:color(display-p3 0.1373 0.1216 0.1255);stroke-opacity:1;" stroke="#231F20" fill="#525247" d="M575.244 1625.54C577.515 1625.95 588.894 1627.38 594.341 1627.87L611.36 1610.02L621.704 1594.28L628.451 1574.49C629.891 1565.04 629.208 1547.95 614.958 1555.15L562.336 1543L555.935 1550.58L596.761 1561.28C600.555 1580.77 579.75 1602.31 575.244 1608.46L575.116 1608.63C571.283 1613.87 569.852 1615.82 569.012 1621.48C568.54 1624.66 571.542 1624.87 575.244 1625.54Z"></path>
<path stroke-linejoin="round" stroke-width="3" style="fill:white;fill-opacity:1;stroke:#231F20;stroke:color(display-p3 0.1373 0.1216 0.1255);stroke-opacity:1;" stroke="#231F20" fill="white" d="M892.299 1765.98L933.39 1713.92L936.089 1702.67L970.721 1658.14C976.867 1651.55 993.389 1641.59 1010.3 1654.55C1027.21 1667.5 1065.62 1697.12 1082.71 1710.32C1086.01 1714.36 1092.52 1722.91 1092.16 1724.71C1091.8 1726.51 1082.41 1747.05 1077.76 1757.09L1070.12 1769.69C1068.02 1772.38 1065.71 1778.14 1073.27 1779.58L1042.23 1822.76L1035.49 1828.16L1026.04 1821.41L1017.5 1832.2L1013 1834.45L1005.8 1842.1L995.008 1855.14L981.965 1865.94C972.635 1871.18 949.139 1878.71 929.792 1866.83L898.309 1844.8C896.166 1841.49 894.591 1832.03 905.048 1820.34C900.251 1825.26 891.192 1826.12 887.52 1823.43L872.177 1811.32C862.805 1802.19 884.488 1775.06 892.299 1765.98Z"></path>
<path style="fill:#E2DED4;fill:color(display-p3 0.8863 0.8706 0.8314);fill-opacity:1;stroke:#231F20;stroke:color(display-p3 0.1373 0.1216 0.1255);stroke-opacity:1;" stroke="#231F20" fill="#E2DED4" d="M888.863 1761.59C884.905 1766.99 886.315 1770.44 887.514 1771.49C895.01 1763.69 909.642 1747.74 908.203 1746.3C906.764 1744.86 903.406 1745.7 901.906 1746.3C899.208 1749.15 892.821 1756.19 888.863 1761.59Z"></path>
<path style="fill:#E2DED4;fill:color(display-p3 0.8863 0.8706 0.8314);fill-opacity:1;stroke:#231F20;stroke:color(display-p3 0.1373 0.1216 0.1255);stroke-opacity:1;" stroke="#231F20" fill="#E2DED4" d="M933.391 1776.88C928.714 1782.28 930.843 1784.83 932.492 1785.43L939.688 1776.88L938.789 1771.49C938.939 1771.04 938.069 1771.49 933.391 1776.88Z"></path>
<path stroke-linejoin="round" stroke-width="3" style="fill:#E2DED4;fill:color(display-p3 0.8863 0.8706 0.8314);fill-opacity:1;stroke:#231F20;stroke:color(display-p3 0.1373 0.1216 0.1255);stroke-opacity:1;" stroke="#231F20" fill="#E2DED4" d="M1068.71 1775.3C1069.22 1779.66 1077.94 1781.03 1082.06 1780.84L1100.35 1776.07C1109.82 1772.69 1109.81 1766.58 1110.03 1762.87C1110.16 1760.76 1109.17 1751.97 1106.8 1740.85C1104.79 1731.39 1099.17 1726.67 1094.21 1726.02C1089.25 1725.37 1086.41 1734.23 1086.14 1735.18C1084.96 1739.32 1078.72 1756.11 1076.35 1760.04C1075.05 1762.19 1068.06 1769.85 1068.71 1775.3Z"></path>
<path stroke-linejoin="round" stroke-width="3" style="fill:#525247;fill:color(display-p3 0.3215 0.3215 0.2785);fill-opacity:1;stroke:#231F20;stroke:color(display-p3 0.1373 0.1216 0.1255);stroke-opacity:1;" stroke="#231F20" fill="#525247" d="M1075.34 1777.17C1074.72 1780.06 1076.64 1780.33 1078.34 1780.86L1105.66 1773.73C1107.68 1761.31 1106.59 1752.66 1092.88 1752.98C1075.73 1753.38 1073.94 1767.32 1075.34 1770.61C1076.2 1772.61 1076.12 1773.57 1075.34 1777.17Z"></path>
<path stroke-linejoin="round" stroke-width="3" style="fill:#525247;fill:color(display-p3 0.3215 0.3215 0.2785);fill-opacity:1;stroke:#231F20;stroke:color(display-p3 0.1373 0.1216 0.1255);stroke-opacity:1;" stroke="#231F20" fill="#525247" d="M962.607 1879C938.704 1884.81 895.023 1857.81 893.323 1844.25L895.741 1837.11C896.143 1834.8 897.148 1832.29 897.858 1830.85L895.741 1837.11C895.464 1838.7 895.473 1840.2 896.059 1841.2C897.499 1843.64 907.753 1852.71 912.701 1856.94L933.84 1869.53C944.82 1873.13 972.571 1875.38 995.736 1855.59V1858.41C990.882 1865.06 983.201 1873.99 962.607 1879Z"></path>
<path style="fill:#E2DED4;fill:color(display-p3 0.8863 0.8706 0.8314);fill-opacity:1;stroke:#231F20;stroke:color(display-p3 0.1373 0.1216 0.1255);stroke-opacity:1;" stroke="#231F20" fill="#E2DED4" d="M968.022 1731.91C969.101 1733.35 966.673 1738.8 965.323 1741.35C973.239 1735.23 976.418 1737 977.017 1738.65L990.06 1749H993.659C1002.95 1755.59 1023.7 1770.68 1032.34 1778.23C1040.97 1785.79 1049.13 1781.38 1052.13 1778.23L1063.82 1759.79L1015.25 1722.46L960.376 1682.88C958.277 1683.33 952.64 1686.93 946.883 1697.72C941.126 1708.52 951.081 1717.21 956.778 1720.21C960.076 1723.51 966.943 1730.47 968.022 1731.91Z"></path>
<path style="fill:#525247;fill:color(display-p3 0.3215 0.3215 0.2785);fill-opacity:1;stroke:#231F20;stroke:color(display-p3 0.1373 0.1216 0.1255);stroke-opacity:1;" stroke="#231F20" fill="#525247" d="M910.902 1696.82C908.383 1695.03 908.353 1698.77 908.653 1700.87C905.355 1698.92 900.467 1693.68 907.304 1688.28C914.14 1682.88 929.042 1696.52 935.639 1704.02L932.94 1711.22L929.342 1709.42C929.042 1709.57 928.173 1710.32 927.093 1712.12C926.014 1713.92 927.543 1717.96 928.443 1719.76L916.299 1708.97C924.845 1708.07 919.897 1704.47 918.998 1701.32C918.098 1698.17 914.05 1699.07 910.902 1696.82Z"></path>
<path style="fill:#E2DED4;fill:color(display-p3 0.8863 0.8706 0.8314);fill-opacity:1;stroke:#231F20;stroke:color(display-p3 0.1373 0.1216 0.1255);stroke-opacity:1;" stroke="#231F20" fill="#E2DED4" d="M913.151 1687.38C905.595 1683.42 904.305 1692.33 904.605 1697.27C901.457 1693.68 901.906 1685.13 907.753 1677.03C913.6 1668.94 920.796 1668.49 930.691 1667.14C938.607 1666.06 948.682 1675.39 952.73 1680.18L935.189 1704.02C930.991 1700.12 920.707 1691.34 913.151 1687.38Z"></path>
<path style="fill:#E2DED4;fill:color(display-p3 0.8863 0.8706 0.8314);fill-opacity:1;stroke:#231F20;stroke:color(display-p3 0.1373 0.1216 0.1255);stroke-opacity:1;" stroke="#231F20" fill="#E2DED4" d="M1257.22 1242.56C1265.86 1217.74 1288.4 1200.74 1298.6 1195.34L1413.29 1225.47C1416.29 1220.37 1424.17 1220.7 1431.73 1262.8C1439.28 1304.9 1409.39 1339.41 1393.5 1351.41C1386.6 1356.8 1369.57 1368.05 1356.62 1369.85C1340.43 1372.1 1276.56 1328.02 1263.07 1310.03C1249.57 1292.04 1246.43 1273.6 1257.22 1242.56Z"></path>
<path style="fill:white;fill-opacity:1;stroke:#231F20;stroke:color(display-p3 0.1373 0.1216 0.1255);stroke-opacity:1;" stroke="#231F20" fill="white" d="M1093.96 1548.85L1100.7 1559.2L1118.24 1588.88C1139.68 1599.83 1183.37 1622.88 1186.61 1627.56C1189.85 1632.24 1197.25 1628.01 1200.55 1625.31L1309.39 1492.18V1485.44L1314.34 1482.74L1382.7 1398.63C1404.29 1367.15 1398 1345.56 1397.55 1347.36C1397.1 1349.16 1375.51 1360.4 1365.16 1363.55C1356.89 1366.07 1342.53 1356.2 1336.38 1350.96C1315.54 1338.66 1272.78 1313.45 1268.46 1310.93C1264.15 1308.41 1258.87 1309.88 1256.77 1310.93L1196.5 1387.39V1394.13H1189.76C1157.82 1432.36 1092.07 1512.24 1084.51 1525.91C1076.96 1539.59 1087.66 1546.9 1093.96 1548.85Z"></path>
<path style="fill:#E2DED4;fill:color(display-p3 0.8863 0.8706 0.8314);fill-opacity:1;stroke:#231F20;stroke:color(display-p3 0.1373 0.1216 0.1255);stroke-opacity:1;" stroke="#231F20" fill="#E2DED4" d="M1013.45 1643.3C1012.01 1644.74 1010.05 1650.3 1009 1654.5C1020 1662 1057.08 1689.93 1059.77 1693.23C1054.02 1684.95 1056.18 1678.68 1057.97 1676.58L1072.82 1696.37C1089.01 1707.62 1097.55 1705.37 1118.69 1701.32C1135.6 1698.08 1145.23 1680.48 1147.93 1672.09C1164.87 1652.75 1201.36 1610.2 1211.79 1594.73C1224.84 1575.39 1219.89 1569.99 1215.84 1561.45C1212.6 1554.61 1200.85 1559.65 1195.6 1564.14C1190.95 1570.29 1180.85 1583.57 1177.61 1587.53C1174.37 1591.49 1168.77 1592.18 1166.37 1592.03L1141.18 1623.96L1114.64 1589.33L1118.69 1586.18L1093.51 1548.85L1089.01 1547.05L1083.61 1542.11L1039.53 1596.08C1036.99 1599.53 1031.35 1607.59 1029.19 1612.27C1027.03 1616.95 1028.29 1622.01 1029.19 1623.96C1024.54 1629.81 1014.89 1641.86 1013.45 1643.3Z"></path>
<path stroke-linejoin="round" stroke-width="3" style="fill:white;fill-opacity:1;stroke:#231F20;stroke:color(display-p3 0.1373 0.1216 0.1255);stroke-opacity:1;" stroke="#231F20" fill="white" d="M1295.35 1092.15C1295.35 1088.53 1296.56 1082.94 1297.17 1080.6L1295.35 1072.1C1294.34 1028.48 1292.91 932.766 1295.35 898.943C1298.41 856.666 1335.93 819.784 1395.75 816.186C1443.6 813.308 1461.48 865.96 1464.44 892.646V1061.76L1462.86 1077.43C1464.31 1079.96 1464.52 1083.62 1464.44 1085.13V1196.83C1464.44 1236.52 1442.55 1256.02 1431.22 1260.93C1429.01 1249 1419.13 1241.3 1414.47 1238.94C1410.73 1238.03 1404.93 1235.97 1390.35 1241.04C1378.68 1245.09 1369.64 1242.85 1360.63 1240.56C1353.55 1238.75 1316.21 1215.86 1305.55 1208.38C1297.03 1202.4 1295.2 1189.43 1295.35 1183.69V1092.15Z"></path>
<path style="fill:#E2DED4;fill:color(display-p3 0.8863 0.8706 0.8314);fill-opacity:1;stroke:#231F20;stroke:color(display-p3 0.1373 0.1216 0.1255);stroke-opacity:1;" stroke="#231F20" fill="#E2DED4" d="M841.189 1002.39C849.824 977.562 872.372 960.561 882.567 955.164L997.257 985.298C1000.26 980.201 1008.14 980.531 1015.7 1022.63C1023.25 1064.73 993.359 1099.24 977.467 1111.23C970.571 1116.63 953.54 1127.87 940.587 1129.67C924.395 1131.92 860.529 1087.84 847.036 1069.85C833.543 1051.86 830.395 1033.42 841.189 1002.39Z"></path>
<path style="fill:white;fill-opacity:1;stroke:#231F20;stroke:color(display-p3 0.1373 0.1216 0.1255);stroke-opacity:1;" stroke="#231F20" fill="white" d="M677.925 1308.68L684.671 1319.02L702.212 1348.71C723.651 1359.65 767.338 1382.71 770.576 1387.39C773.814 1392.06 781.221 1387.84 784.519 1385.14L893.362 1252.01V1245.26L898.309 1242.56L966.673 1158.46C988.262 1126.97 981.965 1105.39 981.515 1107.18C981.066 1108.98 959.477 1120.23 949.132 1123.38C940.857 1125.89 926.494 1116.03 920.347 1110.78C899.508 1098.49 856.751 1073.27 852.433 1070.75C848.115 1068.23 842.838 1069.7 840.739 1070.75L780.471 1147.21V1153.96H773.724C741.791 1192.19 676.036 1272.07 668.48 1285.74C660.924 1299.41 671.628 1306.73 677.925 1308.68Z"></path>
<path style="fill:#E2DED4;fill:color(display-p3 0.8863 0.8706 0.8314);fill-opacity:1;stroke:#231F20;stroke:color(display-p3 0.1373 0.1216 0.1255);stroke-opacity:1;" stroke="#231F20" fill="#E2DED4" d="M597.417 1403.13C595.977 1404.57 593.519 1413.32 592.469 1417.52C606.862 1420.04 615.857 1427.27 618.556 1430.56L641.943 1453.05C644.942 1456.5 649.499 1461.33 643.742 1453.05C637.985 1444.78 640.144 1438.51 641.943 1436.41L656.785 1456.2C672.977 1467.44 681.522 1465.2 702.661 1461.15C719.572 1457.91 729.197 1440.31 731.896 1431.91C748.837 1412.57 785.328 1370.03 795.762 1354.55C808.806 1335.21 803.408 1327.57 799.361 1319.02C796.122 1312.19 784.818 1319.47 779.571 1323.97C774.923 1330.12 764.819 1343.4 761.58 1347.36C758.342 1351.32 752.735 1352.01 750.336 1351.86L725.15 1383.79L698.613 1349.16L702.661 1346.01L677.475 1308.68L672.977 1306.88L667.58 1301.93L623.503 1355.9C620.954 1359.35 615.317 1367.42 613.158 1372.09C611 1376.77 612.259 1381.84 613.158 1383.79C608.511 1389.64 598.856 1401.69 597.417 1403.13Z"></path>
<path stroke-linejoin="round" stroke-width="3" style="fill:white;fill-opacity:1;stroke:#231F20;stroke:color(display-p3 0.1373 0.1216 0.1255);stroke-opacity:1;" stroke="#231F20" fill="white" d="M878.864 661.776C878.864 605.924 930.393 582.762 971.286 649.744C951.23 711.967 960.153 736.858 967.122 741.526L968.472 762.215L976.568 795.498V817.986V877.804C971.89 948.327 1011.2 995.043 1031.44 1009.59L1024.24 1015.88L1015.7 1019.03C1014.35 1016.93 1010.84 1011.29 1007.6 1005.54C1003.55 998.341 990.96 994.293 975.218 1001.04C962.625 1006.44 946.283 1001.79 939.687 998.791L893.361 970.456C880.768 963.619 879.419 948.417 880.318 941.671V848.57L881.667 845.421L878.864 834.724V661.776Z"></path>
<path style="fill:#E2DED4;fill:color(display-p3 0.8863 0.8706 0.8314);fill-opacity:1;stroke:#231F20;stroke:color(display-p3 0.1373 0.1216 0.1255);stroke-opacity:1;" stroke="#231F20" fill="#E2DED4" d="M960.376 580.061C943.465 580.421 916.149 600.6 904.605 610.645C923.495 602.999 940.137 616.042 942.385 616.492C944.184 616.852 962.925 637.031 972.07 647.076C977.467 632.324 1002.2 604.048 1013.9 591.755L960.376 580.061Z"></path>
<path style="fill:#525247;fill:color(display-p3 0.3215 0.3215 0.2785);fill-opacity:1;" fill="#525247" d="M1290.95 890.848H1278.81L1265.77 897.144L1245.08 899.843C1235.78 887.249 1225.11 847.94 1256.77 791.45C1258.68 788.043 1260.63 784.808 1262.62 781.737C1293.56 733.877 1327.4 725.33 1344.02 727.584C1344.02 727.584 1356.62 750.072 1351.67 777.058L1335.03 765.364C1327.98 759.667 1312.36 749.352 1306.24 753.67C1300.13 757.988 1280.61 767.463 1271.61 771.661L1262.62 781.737L1283.31 885.001L1290.95 890.848Z"></path>
<path style="stroke:#231F20;stroke:color(display-p3 0.1373 0.1216 0.1255);stroke-opacity:1;" stroke="#231F20" d="M1262.62 781.737C1260.63 784.808 1258.68 788.043 1256.77 791.45C1225.11 847.94 1235.78 887.249 1245.08 899.843L1265.77 897.144L1278.81 890.848H1290.95L1283.31 885.001L1262.62 781.737ZM1262.62 781.737C1293.56 733.877 1327.4 725.33 1344.02 727.584C1344.02 727.584 1356.62 750.072 1351.67 777.058L1335.03 765.364C1327.98 759.667 1312.36 749.352 1306.24 753.67C1300.13 757.988 1280.61 767.463 1271.61 771.661L1262.62 781.737Z"></path>
<path style="fill:#E2DED4;fill:color(display-p3 0.8863 0.8706 0.8314);fill-opacity:1;stroke:#231F20;stroke:color(display-p3 0.1373 0.1216 0.1255);stroke-opacity:1;" stroke="#231F20" fill="#E2DED4" d="M1283.76 885.45L1296.35 895.795C1301.75 849.919 1330.62 839.754 1361.57 860.264C1392.51 880.773 1400.54 917.683 1400.69 933.575V961.011L1421.83 948.417C1437.67 943.02 1444.92 929.377 1446.57 923.23C1455.93 890.488 1433.98 854.117 1421.83 840.024L1333.23 763.115C1327.83 756.638 1312.09 753.52 1304.9 752.77L1283.76 763.115L1269.36 771.21L1261.72 784.253L1283.76 885.45Z"></path>
<path stroke-linejoin="round" stroke-width="3" style="fill:white;fill-opacity:1;stroke:#231F20;stroke:color(display-p3 0.1373 0.1216 0.1255);stroke-opacity:1;" stroke="#231F20" fill="white" d="M968.358 759.491C958.112 697.23 982.292 626.574 1055.98 580.887C1060.24 593.805 1076.86 623.058 1109.25 636.731C1113.15 646.626 1129.13 666.326 1161.87 665.966C1202.8 665.516 1250.92 633.583 1232.93 615.592L1244.63 602.549L1313.89 643.478C1330.53 653.073 1366.06 685.755 1375.06 739.727C1363.21 727.134 1330 701.516 1306.85 712.741C1277.16 727.134 1220.76 762.665 1218.99 852.168C1217.55 924.85 1269.89 925.33 1296.24 916.484V963.709L1264.87 981.7C1243.13 994.893 1182.38 1011.29 1113.3 971.355C1044.21 931.416 1013.75 913.636 1007.15 909.738C998.824 904.79 980.935 890.578 975.995 873.307V818.158C975.995 790.812 971.574 779.03 968.358 759.491Z"></path>
<path style="fill:#E2DED4;fill:color(display-p3 0.8863 0.8706 0.8314);fill-opacity:1;stroke:#231F20;stroke:color(display-p3 0.1373 0.1216 0.1255);stroke-opacity:1;" stroke="#231F20" fill="#E2DED4" d="M1219.44 623.238C1193.53 642.308 1148.38 643.777 1129.94 642.128C1162.68 663.717 1203.85 646.026 1219.44 634.482V623.238Z"></path>
<path stroke-linejoin="round" stroke-width="3" style="fill:white;fill-opacity:1;stroke:#231F20;stroke:color(display-p3 0.1373 0.1216 0.1255);stroke-opacity:1;" stroke="#231F20" fill="white" d="M1107.78 635.755C1057.29 613.465 1045.05 557.542 1044.09 531.431C1064.61 538.318 1115.63 550.578 1155.57 544.529L1191.55 536.967L1241.73 522.041C1249.52 518.89 1265.58 509.757 1267.46 498.425V536.967C1267.46 633.982 1155.44 656.798 1107.78 635.755Z"></path>
<path stroke-linejoin="round" stroke-width="3" style="stroke:#231F20;stroke:color(display-p3 0.1373 0.1216 0.1255);stroke-opacity:1;" stroke="#231F20" d="M1044.09 531.432C1045.05 557.543 1057.29 613.465 1107.78 635.756C1155.44 656.799 1267.46 633.983 1267.46 536.968V498.426C1267.46 458.045 1267.46 423.381 1222.29 394.98C1174.05 364.647 1140.91 356.928 1101.28 373.668C1072.47 385.84 1055.89 405.626 1051.77 416.12M1051.77 416.12C1026.79 438.219 995.731 458.575 998.699 473.621C1008.23 521.941 1115.6 558.859 1241.73 509.424C1182.39 501.12 1044.09 430.7 1051.77 416.12Z"></path>
<path stroke-linejoin="round" stroke-width="3" style="stroke:#231F20;stroke:color(display-p3 0.1373 0.1216 0.1255);stroke-opacity:1;" stroke="#231F20" d="M998.548 470.245L996.833 484.593C993.78 510.158 1044.93 536.816 1082.39 542.435C1128.86 549.408 1173.01 547.084 1244.43 520.804C1255.34 516.787 1265.2 507.537 1267.46 498.316"></path>
<path stroke-linejoin="round" stroke-width="3" style="fill:#231F20;fill:color(display-p3 0.1373 0.1216 0.1255);fill-opacity:1;stroke:#231F20;stroke:color(display-p3 0.1373 0.1216 0.1255);stroke-opacity:1;" stroke="#231F20" fill="#231F20" d="M1056.07 541.62V535.91L1066.87 539.554V539.554C1066.87 548.798 1066.87 557.499 1064.08 557.499C1059.17 557.499 1056.07 549.505 1056.07 541.62Z"></path>
<path stroke-linejoin="round" stroke-width="3" style="fill:#231F20;fill:color(display-p3 0.1373 0.1216 0.1255);fill-opacity:1;stroke:#231F20;stroke:color(display-p3 0.1373 0.1216 0.1255);stroke-opacity:1;" stroke="#231F20" fill="#231F20" d="M1104.65 570.081V544.905L1120.84 546.092V567.973C1120.84 577.406 1120.84 586.284 1116.65 586.284C1109.29 586.284 1104.65 578.127 1104.65 570.081Z"></path>
<path stroke-linejoin="round" stroke-width="3" style="stroke:#231F20;stroke:color(display-p3 0.1373 0.1216 0.1255);stroke-opacity:1;" stroke="#231F20" d="M1219.79 623.165V633.059"></path>
<path stroke-linejoin="round" stroke-width="3" style="stroke:#231F20;stroke:color(display-p3 0.1373 0.1216 0.1255);stroke-opacity:1;" stroke="#231F20" d="M1224.06 620.466C1229.06 647.772 1149.97 663.414 1129.83 641.807"></path>
<path stroke-linejoin="round" stroke-width="3" style="stroke:#231F20;stroke:color(display-p3 0.1373 0.1216 0.1255);stroke-opacity:1;" stroke="#231F20" d="M1108.24 636.238C1135.91 696.088 1261.21 647.346 1231.43 615.069"></path>
<path stroke-linejoin="round" stroke-width="3" style="stroke:#231F20;stroke:color(display-p3 0.1373 0.1216 0.1255);stroke-opacity:1;" stroke="#231F20" d="M1055.98 580.887C982.292 626.574 958.112 697.23 968.358 759.491C971.574 779.03 975.995 790.812 975.995 818.158V879.351C975.995 928.467 986.011 986.354 1053.79 1024.42L1101.32 1051.66C1147.92 1077.44 1184.46 1087.97 1244.14 1054.8L1296.25 1024.42"></path>
<path stroke-linejoin="round" stroke-width="3" style="stroke:#231F20;stroke:color(display-p3 0.1373 0.1216 0.1255);stroke-opacity:1;" stroke="#231F20" d="M1244.07 602.475L1308.86 640.776C1352.86 667.788 1374.39 712.549 1374.5 740.103"></path>
<path stroke-linejoin="round" stroke-width="3" style="stroke:#231F20;stroke:color(display-p3 0.1373 0.1216 0.1255);stroke-opacity:1;" stroke="#231F20" d="M1342.12 715.816L1361.89 727.361C1394.41 750.774 1382.56 801.281 1381.11 805.769"></path>
<path stroke-linejoin="round" stroke-width="3" style="stroke:#231F20;stroke:color(display-p3 0.1373 0.1216 0.1255);stroke-opacity:1;" stroke="#231F20" d="M1353.81 722.544C1289.18 676.848 1226.4 783.082 1221.28 818.995C1203.15 946.165 1293.99 917.616 1295.64 916.535"></path>
<path stroke-linejoin="round" stroke-width="3" style="stroke:#231F20;stroke:color(display-p3 0.1373 0.1216 0.1255);stroke-opacity:1;" stroke="#231F20" d="M1375.53 800.838C1389.15 704.108 1316.34 712.416 1269.88 771.759C1212.27 845.332 1229.92 934.36 1295.33 909.436"></path>
<path stroke-linejoin="round" stroke-width="3" style="stroke:#231F20;stroke:color(display-p3 0.1373 0.1216 0.1255);stroke-opacity:1;" stroke="#231F20" d="M1262.06 782.381L1283.35 884.934L1295.35 895.721"></path>
<path stroke-linejoin="round" stroke-width="3" style="stroke:#231F20;stroke:color(display-p3 0.1373 0.1216 0.1255);stroke-opacity:1;" stroke="#231F20" d="M1245.87 899.319C1252.84 898.942 1268.93 896.686 1277.52 890.684C1281.19 891.014 1288.93 891.117 1289.95 890.324"></path>
<path stroke-linejoin="round" stroke-width="3" style="stroke:#231F20;stroke:color(display-p3 0.1373 0.1216 0.1255);stroke-opacity:1;" stroke="#231F20" d="M1280.95 873.233C1254.82 868.419 1244.67 821.185 1264.04 790.477"></path>
<path stroke-linejoin="round" stroke-width="3" style="stroke:#231F20;stroke:color(display-p3 0.1373 0.1216 0.1255);stroke-opacity:1;" stroke="#231F20" d="M1270.16 772.439C1279.47 765.622 1300.91 752.499 1308.89 752.699C1318.87 752.948 1334.47 763.567 1340.83 768.929L1416.54 837.014C1433.5 852.794 1459.6 891.183 1444.77 927.039C1438.56 942.07 1420.57 950.605 1400.93 960.487"></path>
<path stroke-linejoin="round" stroke-width="3" style="stroke:#231F20;stroke:color(display-p3 0.1373 0.1216 0.1255);stroke-opacity:1;" stroke="#231F20" d="M1343.02 727.51C1350.81 737.218 1355.54 762.521 1351.36 778.783"></path>
<path stroke-linejoin="round" stroke-width="3" style="stroke:#231F20;stroke:color(display-p3 0.1373 0.1216 0.1255);stroke-opacity:1;" stroke="#231F20" d="M1289.95 750.986C1299.08 746.98 1321.04 744.234 1335.82 765.29"></path>
<path stroke-linejoin="round" stroke-width="3" style="stroke:#231F20;stroke:color(display-p3 0.1373 0.1216 0.1255);stroke-opacity:1;" stroke="#231F20" d="M1284.55 762.617C1288.29 762.292 1299.78 764.891 1315.88 777.886L1396.71 850.875C1418.93 871.518 1443.97 925.459 1418.93 951.492"></path>
<path stroke-linejoin="round" stroke-width="3" style="stroke:#231F20;stroke:color(display-p3 0.1373 0.1216 0.1255);stroke-opacity:1;" stroke="#231F20" d="M976.013 869.635C976.567 876.029 977.915 887.761 1000.7 904.42C1024.86 922.083 1096.08 961.662 1106.28 967.369C1153.15 993.58 1201.63 1011.9 1264.27 981.75L1295.35 964.206"></path>
<path stroke-linejoin="round" stroke-width="3" style="stroke:#231F20;stroke:color(display-p3 0.1373 0.1216 0.1255);stroke-opacity:1;" stroke="#231F20" d="M1051.57 568.293C955.442 610.7 949.062 722.033 966.605 742.801"></path>
<path stroke-linejoin="round" stroke-width="3" style="stroke:#231F20;stroke:color(display-p3 0.1373 0.1216 0.1255);stroke-opacity:1;" stroke="#231F20" d="M1017.39 588.982C1007.38 580.092 981.124 566.126 956.224 581.384"></path>
<path stroke-linejoin="round" stroke-width="3" style="stroke:#231F20;stroke:color(display-p3 0.1373 0.1216 0.1255);stroke-opacity:1;" stroke="#231F20" d="M971.286 649.744C930.393 582.762 878.864 605.924 878.864 661.776V834.724C878.864 840.177 879.97 844.258 884.727 848.206C892.668 854.795 929.508 876.314 937.971 880.319C951.343 886.645 964.971 887.817 976.013 882.288"></path>
<path stroke-linejoin="round" stroke-width="3" style="stroke:#231F20;stroke:color(display-p3 0.1373 0.1216 0.1255);stroke-opacity:1;" stroke="#231F20" d="M1012.89 591.879L973.244 582.211C958.969 579.061 950.349 581.375 932.647 590.828C914.347 600.601 905.197 609.463 902.252 612.37"></path>
<path stroke-linejoin="round" stroke-width="3" style="stroke:#231F20;stroke:color(display-p3 0.1373 0.1216 0.1255);stroke-opacity:1;" stroke="#231F20" d="M1001.2 604.274L952.318 592.462C947.902 591.273 937.463 589.54 931.037 592.121"></path>
<path stroke-linejoin="round" stroke-width="3" style="stroke:#231F20;stroke:color(display-p3 0.1373 0.1216 0.1255);stroke-opacity:1;" stroke="#231F20" d="M984.109 624.963L936.434 614.169"></path>
<path stroke-linejoin="round" stroke-width="3" style="stroke:#231F20;stroke:color(display-p3 0.1373 0.1216 0.1255);stroke-opacity:1;" stroke="#231F20" d="M1448.08 916.829V933.806C1448.08 942.901 1445.21 947.618 1439.32 951.166L1406.81 969.667C1403.8 971.176 1400.49 974 1400.59 966.499V940.103C1400.59 911.672 1390.16 876.298 1351.59 854.075C1332.28 842.95 1295.36 850.985 1295.36 905.793V1070.46C1295.17 1075.05 1296.4 1085.38 1302.87 1090.06C1310.97 1095.9 1354.72 1121.69 1361.27 1123.58C1367.82 1125.47 1380.05 1131.14 1398.48 1121.17C1413.23 1113.19 1441.14 1097.1 1453.26 1090.06C1456.99 1088.4 1464.46 1081.08 1464.46 1065.13V899.772C1464.46 865.393 1442.06 811.762 1392.79 815.888"></path>
<path stroke-linejoin="round" stroke-width="3" style="stroke:#231F20;stroke:color(display-p3 0.1373 0.1216 0.1255);stroke-opacity:1;" stroke="#231F20" d="M1297.17 1080.6C1296.56 1082.94 1295.35 1088.53 1295.35 1092.15C1295.35 1095.78 1295.35 1154.69 1295.35 1183.69C1295.2 1189.43 1297.03 1202.4 1305.55 1208.38C1316.21 1215.86 1353.55 1238.75 1360.63 1240.56C1369.64 1242.85 1378.68 1245.1 1390.35 1241.04C1404.93 1235.97 1410.73 1238.03 1414.47 1238.95C1423.01 1241.04 1427.3 1223.63 1427.3 1208.38C1427.3 1196.18 1427.3 1139.42 1427.3 1112.56C1427.3 1109.77 1426.29 1106.81 1424.85 1106.42M1431.22 1260.93C1442.55 1256.02 1464.44 1236.52 1464.44 1196.83V1085.13C1464.52 1083.62 1464.31 1079.96 1462.86 1077.43"></path>
<path stroke-linejoin="round" stroke-width="3" style="stroke:#231F20;stroke:color(display-p3 0.1373 0.1216 0.1255);stroke-opacity:1;" stroke="#231F20" d="M880.956 843.549C880.352 845.9 879.772 847.657 879.772 851.296C879.772 854.936 879.772 914.083 879.772 943.201C879.621 948.964 881.45 961.992 889.973 967.997C900.628 975.504 937.976 998.491 945.06 1000.3C954.065 1002.6 963.108 1004.86 974.779 1000.79C989.368 995.7 995.164 997.762 998.904 998.683C1003.6 999.84 1007.01 995.075 1009.13 988.006M1015.66 1020.76C1019.84 1018.94 1025.46 1015.12 1030.88 1009.04"></path>
<path stroke-linejoin="round" stroke-width="3" style="stroke:#231F20;stroke:color(display-p3 0.1373 0.1216 0.1255);stroke-opacity:1;" stroke="#231F20" d="M1373.67 1243.22C1352.37 1256.86 1306.99 1319.47 1340.7 1354.98C1364.04 1379.58 1410.89 1346.39 1424.78 1311.06C1435.36 1284.18 1439.68 1250.96 1412.64 1238.44"></path>
<path stroke-linejoin="round" stroke-width="3" style="stroke:#231F20;stroke:color(display-p3 0.1373 0.1216 0.1255);stroke-opacity:1;" stroke="#231F20" d="M957.572 1003.01C936.09 1016.56 890.322 1078.72 924.321 1113.97C947.868 1138.39 995.121 1105.44 1009.13 1070.37C1019.8 1043.68 1024.16 1010.7 996.883 998.268"></path>
<path stroke-linejoin="round" stroke-width="3" style="stroke:#231F20;stroke:color(display-p3 0.1373 0.1216 0.1255);stroke-opacity:1;" stroke="#231F20" d="M1402.39 960.487H1423.25C1424.69 960.598 1427.58 961.883 1427.58 966.135V1102.23C1427.58 1103.52 1427.47 1104.8 1426.79 1105.31"></path>
<path stroke-linejoin="round" stroke-width="3" style="stroke:#231F20;stroke:color(display-p3 0.1373 0.1216 0.1255);stroke-opacity:1;" stroke="#231F20" d="M1297.14 1197.06C1268.73 1210.36 1227.13 1275.27 1263.99 1310.4"></path>
<path stroke-linejoin="round" stroke-width="3" style="stroke:#231F20;stroke:color(display-p3 0.1373 0.1216 0.1255);stroke-opacity:1;" stroke="#231F20" d="M881.563 955.99C853.092 969.284 811.528 1034.2 848.459 1069.33"></path>
<path stroke-linejoin="round" stroke-width="3" style="stroke:#231F20;stroke:color(display-p3 0.1373 0.1216 0.1255);stroke-opacity:1;" stroke="#231F20" d="M1272.48 1314C1251.24 1273.8 1284.35 1226.45 1307.04 1209.66"></path>
<path stroke-linejoin="round" stroke-width="3" style="stroke:#231F20;stroke:color(display-p3 0.1373 0.1216 0.1255);stroke-opacity:1;" stroke="#231F20" d="M891.458 969.482C868.713 986.199 835.613 1033.11 856.955 1072.93"></path>
<path stroke-linejoin="round" stroke-width="3" style="stroke:#231F20;stroke:color(display-p3 0.1373 0.1216 0.1255);stroke-opacity:1;" stroke="#231F20" d="M1341.22 1355.44C1322.49 1340.84 1278.7 1315.75 1271.26 1312.63C1262.68 1309.03 1260.22 1307.52 1254.39 1313.76L1197.95 1384.15C1196.84 1385.65 1194.83 1389.36 1195.72 1392.26"></path>
<path stroke-linejoin="round" stroke-width="3" style="stroke:#231F20;stroke:color(display-p3 0.1373 0.1216 0.1255);stroke-opacity:1;" stroke="#231F20" d="M925.64 1115.27C906.794 1100.67 862.737 1075.58 855.248 1072.46C846.612 1068.86 844.14 1067.34 838.274 1073.58L781.487 1143.97C780.364 1145.47 778.342 1149.19 779.241 1152.09"></path>
<path stroke-linejoin="round" stroke-width="3" style="stroke:#231F20;stroke:color(display-p3 0.1373 0.1216 0.1255);stroke-opacity:1;" stroke="#231F20" d="M1364.28 1362.58C1370.4 1367.28 1362.86 1382.76 1347.8 1401.45L1300.41 1460.69C1298.81 1462.59 1295.99 1464.55 1292.65 1462.35"></path>
<path stroke-linejoin="round" stroke-width="3" style="stroke:#231F20;stroke:color(display-p3 0.1373 0.1216 0.1255);stroke-opacity:1;" stroke="#231F20" d="M948.694 1122.4C954.814 1127.1 947.282 1142.59 932.217 1161.27L884.828 1220.52C883.225 1222.42 880.408 1224.38 877.065 1222.17"></path>
<path stroke-linejoin="round" stroke-width="3" style="stroke:#231F20;stroke:color(display-p3 0.1373 0.1216 0.1255);stroke-opacity:1;" stroke="#231F20" d="M1397.61 1347.28C1401.71 1358.71 1395.38 1383.91 1374.75 1408.64L1313.8 1484.25C1312.78 1485.27 1310.19 1487.17 1307.94 1486.61"></path>
<path stroke-linejoin="round" stroke-width="3" style="stroke:#231F20;stroke:color(display-p3 0.1373 0.1216 0.1255);stroke-opacity:1;" stroke="#231F20" d="M982.015 1106.21C986.159 1117.63 979.766 1142.84 958.932 1167.57L897.376 1243.18C896.35 1244.2 893.73 1246.1 891.458 1245.53"></path>
<path stroke-linejoin="round" stroke-width="3" style="stroke:#231F20;stroke:color(display-p3 0.1373 0.1216 0.1255);stroke-opacity:1;" stroke="#231F20" d="M1185.58 1627.69H1186.56C1193.68 1631.45 1200.64 1625.05 1203.24 1621.38L1303.99 1496.47C1311.79 1487.89 1305.7 1483.05 1305.24 1481.18C1304.77 1479.3 1296.96 1468.22 1281.81 1448.09C1269.69 1431.98 1228.63 1408.12 1209.62 1398.2C1204.62 1394.78 1193.3 1389.68 1187.98 1396.61L1086.08 1523.54C1080.43 1529.29 1079.84 1535.02 1083.82 1541.28C1087.99 1547.82 1091.29 1548.26 1092.63 1548.35L1118.89 1586.06L1118.12 1587.16C1126.15 1593.67 1150.16 1608.16 1153.58 1609.61"></path>
<path stroke-linejoin="round" stroke-width="3" style="stroke:#231F20;stroke:color(display-p3 0.1373 0.1216 0.1255);stroke-opacity:1;" stroke="#231F20" d="M769.517 1387.52H770.493C777.647 1391.29 784.638 1384.86 787.24 1381.18L888.39 1255.79C896.229 1247.18 890.115 1242.32 889.645 1240.44C889.174 1238.56 881.335 1227.43 866.128 1207.22C853.961 1191.05 812.739 1167.1 793.649 1157.14C788.633 1153.71 777.264 1148.59 771.921 1155.55L669.619 1282.96C663.945 1288.74 663.35 1294.49 667.352 1300.77C671.532 1307.34 674.845 1307.77 676.199 1307.87L702.555 1345.72L701.788 1346.83C709.849 1353.36 733.951 1367.9 737.391 1369.37"></path>
<path stroke-linejoin="round" stroke-width="3" style="stroke:#231F20;stroke:color(display-p3 0.1373 0.1216 0.1255);stroke-opacity:1;" stroke="#231F20" d="M1177.17 1588.27C1173.29 1593.34 1168.6 1593.23 1166.74 1592.54L1127.2 1642.94C1108.65 1667.84 1109.6 1677.16 1120.77 1685.17C1130.53 1692.16 1142.24 1680.56 1149.54 1671.24L1212.16 1593.42C1221.56 1581.78 1222.3 1567.04 1214.21 1559.53C1207.75 1553.51 1195.84 1564.39 1190.7 1570.58L1177.17 1588.27Z"></path>
<path stroke-linejoin="round" stroke-width="3" style="stroke:#231F20;stroke:color(display-p3 0.1373 0.1216 0.1255);stroke-opacity:1;" stroke="#231F20" d="M761.591 1347.19C757.711 1352.26 753.017 1352.15 751.155 1351.47L711.616 1401.87C693.065 1426.77 694.015 1436.09 705.191 1444.1C714.947 1451.08 726.654 1439.48 733.958 1430.17L796.574 1352.35C805.982 1340.71 806.717 1325.97 798.632 1318.45C792.165 1312.44 780.259 1323.32 775.114 1329.51L761.591 1347.19Z"></path>
<path stroke-linejoin="round" stroke-width="3" style="stroke:#231F20;stroke:color(display-p3 0.1373 0.1216 0.1255);stroke-opacity:1;" stroke="#231F20" d="M1216.19 1561.74C1216.84 1562.14 1218.44 1562.7 1219.54 1561.74L1293.01 1469.25C1293.69 1468.58 1294.89 1466.83 1294.27 1465.12"></path>
<path stroke-linejoin="round" stroke-width="3" style="stroke:#231F20;stroke:color(display-p3 0.1373 0.1216 0.1255);stroke-opacity:1;" stroke="#231F20" d="M800.605 1320.68C801.263 1321.07 802.854 1321.62 803.959 1320.68L877.424 1229.03C878.105 1228.38 879.313 1226.64 878.693 1224.95"></path>
<path stroke-linejoin="round" stroke-width="3" style="stroke:#231F20;stroke:color(display-p3 0.1373 0.1216 0.1255);stroke-opacity:1;" stroke="#231F20" d="M1009.3 1653.93C1010.41 1650.61 1012.5 1644.01 1017.09 1638.93L1050.42 1598.23C1058.1 1589.49 1075.5 1581.03 1091.23 1591.21C1109.98 1603.34 1097.4 1622.84 1090.11 1631.72L1063.37 1665.57C1058.94 1671.02 1051.34 1683.3 1057 1690.5"></path>
<path stroke-linejoin="round" stroke-width="3" style="stroke:#231F20;stroke:color(display-p3 0.1373 0.1216 0.1255);stroke-opacity:1;" stroke="#231F20" d="M592.815 1417.68C592.815 1412.59 597.203 1402.93 601.774 1397.85L635.002 1357.16C642.651 1348.42 660.003 1339.95 675.685 1350.13C694.375 1362.26 681.831 1381.76 674.566 1390.65L647.911 1424.5C643.489 1429.94 635.989 1441.57 641.631 1448.77C645.123 1452.25 652.507 1460.21 654.104 1464.22"></path>
<path stroke-linejoin="round" stroke-width="3" style="stroke:#231F20;stroke:color(display-p3 0.1373 0.1216 0.1255);stroke-opacity:1;" stroke="#231F20" d="M1033.58 1618.36C1035.84 1605.83 1051.66 1580.23 1082.99 1578.54C1115.05 1576.81 1132.3 1604.12 1122.68 1628.24C1113.06 1652.35 1086.11 1668.51 1064.27 1665.31"></path>
<path stroke-linejoin="round" stroke-width="3" style="stroke:#231F20;stroke:color(display-p3 0.1373 0.1216 0.1255);stroke-opacity:1;" stroke="#231F20" d="M618.002 1377.77C620.233 1365.37 635.904 1340.04 666.923 1338.37C698.672 1336.66 715.749 1363.68 706.224 1387.55C696.699 1411.41 670.012 1427.41 648.388 1424.24"></path>
<path stroke-linejoin="round" stroke-width="3" style="stroke:#231F20;stroke:color(display-p3 0.1373 0.1216 0.1255);stroke-opacity:1;" stroke="#231F20" d="M1120.84 1598.25L1140.63 1626.14"></path>
<path stroke-linejoin="round" stroke-width="3" style="stroke:#231F20;stroke:color(display-p3 0.1373 0.1216 0.1255);stroke-opacity:1;" stroke="#231F20" d="M705.255 1357.18L725.045 1385.06"></path>
<path stroke-linejoin="round" stroke-width="3" style="stroke:#231F20;stroke:color(display-p3 0.1373 0.1216 0.1255);stroke-opacity:1;" stroke="#231F20" d="M1115.44 1590.16L1118.14 1585.66"></path>
<path stroke-linejoin="round" stroke-width="3" style="stroke:#231F20;stroke:color(display-p3 0.1373 0.1216 0.1255);stroke-opacity:1;" stroke="#231F20" d="M698.959 1349.08L702.557 1345.48"></path>
<path stroke-linejoin="round" stroke-width="3" style="stroke:#231F20;stroke:color(display-p3 0.1373 0.1216 0.1255);stroke-opacity:1;" stroke="#231F20" d="M1083.96 1541.58L1039.39 1597.31C1034.32 1603.65 1027 1614.54 1028.35 1625.24"></path>
<path stroke-linejoin="round" stroke-width="3" style="stroke:#231F20;stroke:color(display-p3 0.1373 0.1216 0.1255);stroke-opacity:1;" stroke="#231F20" d="M668.376 1301.41L623.812 1356.54C618.738 1362.81 611.417 1373.58 612.768 1384.16"></path>
<path stroke-linejoin="round" stroke-width="3" style="stroke:#231F20;stroke:color(display-p3 0.1373 0.1216 0.1255);stroke-opacity:1;" stroke="#231F20" d="M1113.64 1674.71C1110.93 1673.99 1107.12 1669.52 1113.64 1657.36C1119.48 1646.47 1125.2 1642.39 1128.03 1641.43"></path>
<path stroke-linejoin="round" stroke-width="3" style="stroke:#231F20;stroke:color(display-p3 0.1373 0.1216 0.1255);stroke-opacity:1;" stroke="#231F20" d="M697.31 1433.64C694.482 1432.92 690.523 1428.45 697.31 1416.31C703.498 1405.24 709.559 1401.22 712.453 1400.36"></path>
<path stroke-linejoin="round" stroke-width="3" style="stroke:#231F20;stroke:color(display-p3 0.1373 0.1216 0.1255);stroke-opacity:1;" stroke="#231F20" d="M1056.97 1676.48L1070.85 1694.44C1077.48 1701.95 1092.84 1709.08 1109.57 1705.01C1128.38 1700.44 1142.76 1687.63 1148.72 1672.01"></path>
<path stroke-linejoin="round" stroke-width="3" style="stroke:#231F20;stroke:color(display-p3 0.1373 0.1216 0.1255);stroke-opacity:1;" stroke="#231F20" d="M641.39 1436.18L655.266 1453.68C661.898 1460.99 677.263 1467.93 693.987 1463.97C712.8 1459.51 727.18 1447.04 733.142 1431.84"></path>
<path stroke-linejoin="round" stroke-width="3" style="stroke:#231F20;stroke:color(display-p3 0.1373 0.1216 0.1255);stroke-opacity:1;" stroke="#231F20" d="M1125.33 1686.41C1116.06 1694.76 1091.75 1707.39 1068.66 1691.09"></path>
<path stroke-linejoin="round" stroke-width="3" style="stroke:#231F20;stroke:color(display-p3 0.1373 0.1216 0.1255);stroke-opacity:1;" stroke="#231F20" d="M709.754 1446.23C700.482 1453.99 676.168 1465.72 653.084 1450.58"></path>
<path stroke-linejoin="round" stroke-width="3" style="stroke:#231F20;stroke:color(display-p3 0.1373 0.1216 0.1255);stroke-opacity:1;" stroke="#231F20" d="M931.037 1715.62C932.535 1711.27 935.978 1702.42 937.176 1700.5C938.674 1698.11 955 1676.97 957.247 1674.27L970.428 1658.83C976.02 1652.09 991.817 1641.87 1010.27 1654.94L1076.62 1705.45C1080.77 1708.4 1089.66 1716.63 1092.05 1725.99"></path>
<path stroke-linejoin="round" stroke-width="3" style="stroke:#231F20;stroke:color(display-p3 0.1373 0.1216 0.1255);stroke-opacity:1;" stroke="#231F20" d="M1082.06 1780.84C1077.94 1781.03 1069.22 1779.66 1068.71 1775.3C1068.06 1769.85 1075.05 1762.19 1076.35 1760.04C1078.72 1756.11 1084.96 1739.32 1086.14 1735.18C1086.41 1734.23 1089.25 1725.37 1094.21 1726.02C1099.17 1726.67 1104.79 1731.39 1106.8 1740.85C1109.17 1751.97 1110.16 1760.76 1110.03 1762.87C1109.81 1766.58 1109.82 1772.69 1100.35 1776.07"></path>
<path stroke-linejoin="round" stroke-width="3" style="stroke:#231F20;stroke:color(display-p3 0.1373 0.1216 0.1255);stroke-opacity:1;" stroke="#231F20" d="M1078.34 1780.86C1076.64 1780.33 1074.72 1780.06 1075.34 1777.17C1076.12 1773.57 1076.2 1772.61 1075.34 1770.61C1073.94 1767.32 1075.73 1753.38 1092.88 1752.98C1106.59 1752.66 1107.68 1761.31 1105.66 1773.73"></path>
<path stroke-linejoin="round" stroke-width="3" style="fill:white;fill-opacity:1;stroke:#231F20;stroke:color(display-p3 0.1373 0.1216 0.1255);stroke-opacity:1;" stroke="#231F20" fill="white" d="M1090.51 1774.76C1093.61 1774.17 1099.86 1772.61 1101.02 1774.76C1101.42 1775.51 1097.48 1779.94 1091.78 1781.37C1086.49 1782.7 1081.16 1780.21 1080.52 1779.56C1079.19 1778.2 1086.48 1775.53 1090.51 1774.76Z"></path>
<path stroke-linejoin="round" stroke-width="3" style="fill:white;fill-opacity:1;stroke:#231F20;stroke:color(display-p3 0.1373 0.1216 0.1255);stroke-opacity:1;" stroke="#231F20" fill="white" d="M1087.53 1770.88L1094.54 1769.7C1101.09 1768.36 1098.09 1762.96 1093.73 1763.87L1086.54 1765.22C1080.46 1766.72 1083.36 1771.64 1087.53 1770.88Z"></path>
<path stroke-linejoin="round" stroke-width="3" style="stroke:#231F20;stroke:color(display-p3 0.1373 0.1216 0.1255);stroke-opacity:1;" stroke="#231F20" d="M1026.39 1821.16L1034.83 1827.52C1036.2 1828.26 1039.89 1825.13 1041.26 1823.65C1042.63 1822.18 1063.55 1793.49 1074.06 1779.06"></path>
<path stroke-linejoin="round" stroke-width="3" style="stroke:#231F20;stroke:color(display-p3 0.1373 0.1216 0.1255);stroke-opacity:1;" stroke="#231F20" d="M1016.49 1833.03L1047.98 1795.25"></path>
<path stroke-linejoin="round" stroke-width="3" style="stroke:#231F20;stroke:color(display-p3 0.1373 0.1216 0.1255);stroke-opacity:1;" stroke="#231F20" d="M1033.4 1812.96C1035.69 1814.51 1040.7 1815.19 1042.37 1810.77L1046.6 1798.17C1048.04 1794.79 1051.23 1787.6 1052.41 1785.91L1062.14 1772.17C1065.4 1767.44 1067.17 1762.32 1060.66 1757.48L965.916 1684.87C962.45 1682.1 956.915 1679.89 953.034 1684.87L941.193 1701.36C940.383 1702.56 938.656 1705.54 938.233 1707.91"></path>
<path stroke-linejoin="round" stroke-width="3" style="stroke:#231F20;stroke:color(display-p3 0.1373 0.1216 0.1255);stroke-opacity:1;" stroke="#231F20" d="M958.922 1681.91L892.299 1765.97C884.488 1775.06 862.805 1802.19 872.177 1811.32L887.52 1823.43C891.34 1826.23 900.991 1825.18 905.608 1819.73"></path>
<path stroke-linejoin="round" stroke-width="3" style="stroke:#231F20;stroke:color(display-p3 0.1373 0.1216 0.1255);stroke-opacity:1;" stroke="#231F20" d="M939.32 1775.67C940.814 1771.24 940.449 1769.3 933.372 1777.61C927.524 1784.48 928.433 1787.44 932.66 1783.77"></path>
<path stroke-linejoin="round" stroke-width="3" style="stroke:#231F20;stroke:color(display-p3 0.1373 0.1216 0.1255);stroke-opacity:1;" stroke="#231F20" d="M900.453 1755.67C901.463 1756.01 903.7 1757.2 904.589 1757.93C905.478 1758.66 929.007 1777.23 929.007 1777.23C930.304 1778.31 931.037 1779.58 931.037 1780.86"></path>
<path stroke-linejoin="round" stroke-width="3" style="stroke:#231F20;stroke:color(display-p3 0.1373 0.1216 0.1255);stroke-opacity:1;" stroke="#231F20" d="M887.924 1770.96C886.719 1770.26 884.871 1767.91 887.12 1764.12C889.932 1759.38 899.705 1747.36 901.491 1745.88C903.276 1744.41 905.998 1744.68 907.649 1745.88"></path>
<path stroke-linejoin="round" stroke-width="3" style="stroke:#231F20;stroke:color(display-p3 0.1373 0.1216 0.1255);stroke-opacity:1;" stroke="#231F20" d="M1064.17 1762.3L1052.88 1777.19C1050.42 1780.82 1043.15 1786.29 1033.83 1779.13L994.276 1748.86C994.115 1748.86 993.427 1748.86 991.971 1748.86C990.151 1748.86 988.816 1746.92 987.967 1746.44C987.288 1746.05 981.86 1741.76 979.231 1739.66C977.087 1737.93 971.756 1735.74 967.582 1740.87L921.231 1798.49C912.374 1809.87 891.939 1833.2 893.324 1844.25C895.023 1857.81 938.704 1884.81 962.607 1879C983.201 1873.99 990.883 1865.06 995.736 1858.41"></path>
<path stroke-linejoin="round" stroke-width="3" style="fill:#E2DED4;fill:color(display-p3 0.8863 0.8706 0.8314);fill-opacity:1;stroke:#231F20;stroke:color(display-p3 0.1373 0.1216 0.1255);stroke-opacity:1;" stroke="#231F20" fill="#E2DED4" d="M1015.55 1833.04C1012.31 1832.45 993.085 1855.74 996.128 1858.68C1001.03 1862.71 1005.07 1857.04 1011.43 1849.25C1018.63 1840.44 1020.43 1833.93 1015.55 1833.04Z"></path>
<path stroke-linejoin="round" stroke-width="3" style="stroke:#231F20;stroke:color(display-p3 0.1373 0.1216 0.1255);stroke-opacity:1;" stroke="#231F20" d="M931.936 1785.35C933.173 1785.5 936.388 1786.37 939.356 1788.68L1001.47 1837.12C1002.76 1838.23 1005.42 1840.76 1005.7 1842.02"></path>
<path stroke-linejoin="round" stroke-width="3" style="stroke:#231F20;stroke:color(display-p3 0.1373 0.1216 0.1255);stroke-opacity:1;" stroke="#231F20" d="M898.143 1829.43C896.33 1832.5 893.949 1839.92 898.931 1845.08C905.16 1851.53 931.739 1874.41 955.773 1873.48C974.142 1872.77 989.166 1861.61 997.602 1852.09"></path>
<path stroke-linejoin="round" stroke-width="3" style="stroke:#231F20;stroke:color(display-p3 0.1373 0.1216 0.1255);stroke-opacity:1;" stroke="#231F20" d="M961.452 1681.91C957.137 1687.09 948.675 1697.8 948.159 1698.53C947.081 1700.05 941.407 1707.6 950.539 1715.2L961.332 1723.34C965.576 1726.28 970.931 1731.62 965.845 1739.6L955.095 1756.57"></path>
<path stroke-linejoin="round" stroke-width="3" style="stroke:#231F20;stroke:color(display-p3 0.1373 0.1216 0.1255);stroke-opacity:1;" stroke="#231F20" d="M992.205 1748.47C996.436 1741.86 1006.5 1727.04 1012.89 1720.59"></path>
<path stroke-linejoin="round" stroke-width="3" style="fill:white;fill-opacity:1;stroke:#231F20;stroke:color(display-p3 0.1373 0.1216 0.1255);stroke-opacity:1;" stroke="#231F20" fill="white" d="M908.676 1697.24C909.029 1696.83 909.915 1696.48 911.578 1696.86C913.169 1697.22 915.094 1698.2 916.909 1699.76C918.725 1701.32 919.976 1703.08 920.57 1704.6C921.193 1706.19 920.976 1707.12 920.623 1707.53C920.27 1707.94 919.384 1708.29 917.719 1707.91C916.129 1707.55 914.204 1706.57 912.388 1705.01C910.572 1703.45 909.322 1701.69 908.727 1700.17C908.105 1698.58 908.323 1697.65 908.676 1697.24Z"></path>
<path stroke-linejoin="round" stroke-width="3" style="stroke:#231F20;stroke:color(display-p3 0.1373 0.1216 0.1255);stroke-opacity:1;" stroke="#231F20" d="M927.749 1720.59C926.509 1719.03 923.657 1715.67 922.169 1714.68C920.308 1713.44 897.489 1697.79 905.909 1688.92C911.903 1682.59 928.645 1696.34 935.534 1705.06"></path>
<path stroke-linejoin="round" stroke-width="3" style="fill:white;fill-opacity:1;stroke:#231F20;stroke:color(display-p3 0.1373 0.1216 0.1255);stroke-opacity:1;" stroke="#231F20" fill="white" d="M926.707 1712.88C925.908 1714.74 928.151 1717.59 929.372 1718.79L931.591 1716.16L932.836 1711.09C932.258 1710.32 930.824 1708.79 929.705 1708.9C928.306 1709.03 927.707 1710.56 926.707 1712.88Z"></path>
<path stroke-linejoin="round" stroke-width="3" style="stroke:#231F20;stroke:color(display-p3 0.1373 0.1216 0.1255);stroke-opacity:1;" stroke="#231F20" d="M952.625 1680.64C948.332 1676.04 937.271 1666.78 927.375 1666.62C915.005 1666.41 893.434 1685.73 906.111 1700.8"></path>
<path stroke-linejoin="round" stroke-width="3" style="stroke:#231F20;stroke:color(display-p3 0.1373 0.1216 0.1255);stroke-opacity:1;" stroke="#231F20" d="M504.708 1472.86C504.388 1464.53 505.526 1446.78 514.739 1437.59L530.32 1422.76C535.264 1417.5 549.635 1408.02 567.564 1412.17L598.69 1419.38C603.065 1420.4 611.851 1423.93 617.827 1429.44L657.312 1467.14C669.798 1478.37 682.796 1491.16 675.027 1518.19"></path>
<path stroke-linejoin="round" stroke-width="3" style="stroke:#231F20;stroke:color(display-p3 0.1373 0.1216 0.1255);stroke-opacity:1;" stroke="#231F20" d="M528.049 1424.64C529.903 1420.39 537.335 1411.87 550.538 1412.05"></path>
<path stroke-linejoin="round" stroke-width="3" style="stroke:#231F20;stroke:color(display-p3 0.1373 0.1216 0.1255);stroke-opacity:1;" stroke="#231F20" d="M636.852 1540.91C636.358 1539.43 634.591 1537.84 633.768 1537.23C631.671 1537.23 636.978 1528.72 640.917 1525.24C648.249 1518.77 668.287 1509.08 684.216 1525.24C700.476 1541.74 682.227 1556.11 678.78 1558.63C673.803 1562.26 665.345 1564.59 662.631 1563.97C659.917 1563.36 652.27 1561.89 649.803 1561.27C647.336 1560.66 644.129 1558.57 644.253 1557.59C644.351 1556.81 643.471 1554.98 643.019 1554.16L636.852 1540.91Z"></path>
<path stroke-linejoin="round" stroke-width="3" style="stroke:#231F20;stroke:color(display-p3 0.1373 0.1216 0.1255);stroke-opacity:1;" stroke="#231F20" d="M633.294 1536.53C635.208 1533.47 650.232 1528.65 659.668 1545.75C670.886 1566.08 660.323 1562.01 659.038 1561.82C657.752 1561.63 652.28 1561.11 650.16 1561.62"></path>
<path stroke-linejoin="round" stroke-width="3" style="fill:white;fill-opacity:1;stroke:#231F20;stroke:color(display-p3 0.1373 0.1216 0.1255);stroke-opacity:1;" stroke="#231F20" fill="white" d="M647.159 1540.93C644.825 1542.31 646.164 1547.7 647.524 1550.82C649.548 1555.46 656.036 1560.38 658.387 1559.46C661.005 1558.43 657.739 1551.34 656.685 1549.25C655.631 1547.16 650.078 1539.2 647.159 1540.93Z"></path>
<path stroke-linejoin="round" stroke-width="3" style="fill:white;fill-opacity:1;stroke:#231F20;stroke:color(display-p3 0.1373 0.1216 0.1255);stroke-opacity:1;" stroke="#231F20" fill="white" d="M641.412 1540.71C643.85 1540.28 646.389 1545.89 647.22 1548.55L649.486 1553.57C648.029 1556.85 644.375 1554.12 643.121 1551.64C642.58 1550.57 641.311 1547.86 640.678 1546.56C639.886 1544.94 638.364 1541.23 641.412 1540.71Z"></path>
<path stroke-linejoin="round" stroke-width="3" style="stroke:#231F20;stroke:color(display-p3 0.1373 0.1216 0.1255);stroke-opacity:1;" stroke="#231F20" d="M510.059 1444.24C511.467 1442.05 513.461 1441.45 515.689 1441.85L566.73 1453.82C569.814 1454.56 571.133 1457.94 570.345 1464.11C569.302 1472.27 564.645 1487.1 573.029 1497.88L606.951 1540.12C609.039 1543.71 613.273 1551.73 613.504 1555.07"></path>
<path stroke-linejoin="round" stroke-width="3" style="stroke:#231F20;stroke:color(display-p3 0.1373 0.1216 0.1255);stroke-opacity:1;" stroke="#231F20" d="M661.18 1564.34C650.712 1586.93 627.658 1629.84 594.341 1627.87C588.894 1627.38 577.515 1625.95 575.244 1625.54C571.542 1624.87 568.54 1624.66 569.012 1621.48C569.861 1615.76 571.315 1613.83 575.244 1608.46C579.75 1602.31 600.555 1580.77 596.761 1561.28M596.761 1561.28L555.935 1550.58M596.761 1561.28C596.173 1558.1 594.242 1552.2 593.232 1550.62"></path>
<path stroke-linejoin="round" stroke-width="3" style="stroke:#231F20;stroke:color(display-p3 0.1373 0.1216 0.1255);stroke-opacity:1;" stroke="#231F20" d="M562.231 1543.38L613.618 1555.35C625.264 1549.66 636.22 1561.34 622.207 1592.73C617.81 1602.58 606.049 1617.26 593.821 1627.04"></path>
<path stroke-linejoin="round" stroke-width="3" style="stroke:#231F20;stroke:color(display-p3 0.1373 0.1216 0.1255);stroke-opacity:1;" stroke="#231F20" d="M564.93 1538.88L604.939 1548.58C607.598 1549.23 611.161 1548.75 607.324 1539.94"></path>
<path stroke-linejoin="round" stroke-width="3" style="stroke:#231F20;stroke:color(display-p3 0.1373 0.1216 0.1255);stroke-opacity:1;" stroke="#231F20" d="M519.779 1442.63C515.168 1445.56 504.359 1455.13 505.671 1472.95C505.771 1474.31 506.467 1474.46 507.855 1474.84L530.708 1480.49C530.192 1481.09 529.918 1482.28 531.884 1482.57L536.89 1483.65C538.71 1484.31 542.369 1486.39 542.442 1489.41"></path>
<path stroke-linejoin="round" stroke-width="3" style="stroke:#231F20;stroke:color(display-p3 0.1373 0.1216 0.1255);stroke-opacity:1;" stroke="#231F20" d="M544.241 1448.93C531.925 1456.54 529.031 1473.91 531.617 1483.11"></path>
<path stroke-linejoin="round" stroke-width="3" style="stroke:#231F20;stroke:color(display-p3 0.1373 0.1216 0.1255);stroke-opacity:1;" stroke="#231F20" d="M505.561 1472.32L463.489 1524.61C456.039 1533.73 447.328 1542.96 446.284 1560.36C444.814 1584.86 461.287 1610.74 477.759 1610.85C488.775 1610.92 491.844 1602.03 497.614 1592.8"></path>
<path stroke-linejoin="round" stroke-width="3" style="stroke:#231F20;stroke:color(display-p3 0.1373 0.1216 0.1255);stroke-opacity:1;" stroke="#231F20" d="M568.528 1479.51L562.207 1484.28C560.036 1485.23 554.992 1486.93 552.191 1486.23L548.982 1485.26C548.204 1484.77 546.026 1484.6 543.537 1487.79L508.237 1532.18V1533.73H507.07C501.685 1541.8 493.758 1555.9 493.868 1568.25C494.006 1583.67 499.462 1598.33 501.685 1600.76C503.011 1602.21 516.511 1604.4 519.61 1600.76C521.492 1598.55 529.612 1582.05 531.538 1579.58C533.96 1576.47 539.565 1568.45 539.565 1566.81"></path>
<path stroke-linejoin="round" stroke-width="3" style="stroke:#231F20;stroke:color(display-p3 0.1373 0.1216 0.1255);stroke-opacity:1;" stroke="#231F20" d="M500.164 1598.19C502.553 1599.57 508.229 1601.27 510.442 1600.9C513.303 1600.42 516.725 1595.67 517.917 1593.77C518.819 1592.34 529.826 1575.16 535.246 1566.77"></path>
<path stroke-linejoin="round" stroke-width="3" style="fill:#E2DED4;fill:color(display-p3 0.8863 0.8706 0.8314);fill-opacity:1;stroke:#231F20;stroke:color(display-p3 0.1373 0.1216 0.1255);stroke-opacity:1;" stroke="#231F20" fill="#E2DED4" d="M539.862 1535.43C547.232 1536.15 552.775 1543.31 551.953 1551.67C551.131 1560.03 544.297 1565.98 536.927 1565.25C529.557 1564.53 524.013 1557.36 524.836 1549C525.659 1540.65 532.492 1534.7 539.862 1535.43Z"></path>
<path stroke-linejoin="round" stroke-width="3" style="stroke:#231F20;stroke:color(display-p3 0.1373 0.1216 0.1255);stroke-opacity:1;" stroke="#231F20" d="M508.26 1533.49L517.987 1535.6C519.866 1536.07 524.33 1537.75 527.15 1540.68"></path>
<path stroke-linejoin="round" stroke-width="3" style="stroke:#231F20;stroke:color(display-p3 0.1373 0.1216 0.1255);stroke-opacity:1;" stroke="#231F20" d="M585.619 1512.8L556.193 1550.15L553.236 1550.58"></path>
<path stroke-linejoin="round" stroke-width="3" style="stroke:#231F20;stroke:color(display-p3 0.1373 0.1216 0.1255);stroke-opacity:1;" stroke="#231F20" d="M462.384 1525.39L495.204 1533.32C498.397 1534.1 501.202 1535.62 503.762 1537.98"></path>
<path stroke-linejoin="round" stroke-width="3" style="stroke:#231F20;stroke:color(display-p3 0.1373 0.1216 0.1255);stroke-opacity:1;" stroke="#231F20" d="M495.666 1583.86C491.956 1590.74 482.953 1604.68 476.622 1605.37C470.292 1606.06 462.094 1602.12 458.786 1600.06"></path>
<path stroke-linejoin="round" stroke-width="3" style="stroke:#231F20;stroke:color(display-p3 0.1373 0.1216 0.1255);stroke-opacity:1;" stroke="#231F20" d="M1097.48 1049.54V1412.44C1097.27 1414.41 1098.07 1419 1102.9 1421.68L1146.92 1447.13"></path>
<path stroke-linejoin="round" stroke-width="3" style="stroke:#231F20;stroke:color(display-p3 0.1373 0.1216 0.1255);stroke-opacity:1;" stroke="#231F20" d="M1101.05 1421.05V1503.8"></path>
<path stroke-linejoin="round" stroke-width="3" style="stroke:#231F20;stroke:color(display-p3 0.1373 0.1216 0.1255);stroke-opacity:1;" stroke="#231F20" d="M1286.34 1519.09V1586.26C1286.39 1588.32 1286.34 1592.4 1282.32 1595.24L1199.63 1643.1C1196.09 1645.47 1185.64 1649.14 1172.11 1644.85"></path>
<path stroke-linejoin="round" stroke-width="3" style="stroke:#231F20;stroke:color(display-p3 0.1373 0.1216 0.1255);stroke-opacity:1;" stroke="#231F20" d="M1284.55 1592.85V1757.47"></path>
<path stroke-linejoin="round" stroke-width="3" style="stroke:#231F20;stroke:color(display-p3 0.1373 0.1216 0.1255);stroke-opacity:1;" stroke="#231F20" d="M1285.17 1747.57L1291 1751.26C1292.54 1752.25 1293.77 1753.12 1291 1754.62L1204.87 1803.91C1189.18 1812.46 1181.11 1813.04 1163.81 1803.91L1108.24 1771.9"></path>
<path stroke-linejoin="round" stroke-width="3" style="stroke:#231F20;stroke:color(display-p3 0.1373 0.1216 0.1255);stroke-opacity:1;" stroke="#231F20" d="M1105.55 1706.2V1735.88"></path>
<path stroke-linejoin="round" stroke-width="3" style="stroke:#231F20;stroke:color(display-p3 0.1373 0.1216 0.1255);stroke-opacity:1;" stroke="#231F20" d="M1094.75 1780.9L1154.88 1815.75C1164.8 1820.96 1190.54 1827.95 1214.11 1814.25L1531.25 1631.37C1540.13 1626.26 1552.58 1615.26 1529.7 1602.08L1456.3 1560.12C1448.04 1554.54 1426.13 1546.49 1404.6 1558.99L1284.15 1628.41"></path>
<path stroke-linejoin="round" stroke-width="3" style="stroke:#231F20;stroke:color(display-p3 0.1373 0.1216 0.1255);stroke-opacity:1;" stroke="#231F20" d="M1285.45 1532.59L1362.14 1576.96C1363.39 1577.65 1364.98 1579.91 1364.53 1582.06"></path>
<path stroke-linejoin="round" stroke-width="3" style="stroke:#231F20;stroke:color(display-p3 0.1373 0.1216 0.1255);stroke-opacity:1;" stroke="#231F20" d="M1018.29 1835.17L1184.18 1929.76C1248.75 1961 1311.08 1987.11 1415.42 1937.76L1674.48 1788.52C1719.96 1766.43 1783.58 1714.82 1672.48 1646.67C1561.38 1578.52 1426.09 1503.99 1426.09 1503.99C1405.25 1493.43 1349.06 1469.32 1324.7 1471.57"></path>
<path stroke-linejoin="round" stroke-width="3" style="stroke:#231F20;stroke:color(display-p3 0.1373 0.1216 0.1255);stroke-opacity:1;" stroke="#231F20" d="M1053.37 1580.26L932.315 1652.13C902.807 1668.36 853.851 1711.44 894.089 1753.87"></path>
<path stroke-linejoin="round" stroke-width="3" style="stroke:#231F20;stroke:color(display-p3 0.1373 0.1216 0.1255);stroke-opacity:1;" stroke="#231F20" d="M1332.32 1461.52C1363.51 1462.23 1415.82 1484.82 1426.22 1489.78C1436.62 1494.74 1673.45 1631.14 1707.85 1652.65C1760.53 1685.58 1753.83 1726.45 1753.83 1734.26V1818.61C1753.83 1959.9 1753.83 2004.47 1668.19 2060.65L1418.83 2204.81C1321.35 2259.7 1229.82 2227.68 1196.23 2204.81L942.778 2059.71C855.628 2009.1 860.011 1918.81 860.011 1800.99V1723.57C860.011 1679.63 898.111 1655.92 930.949 1637.45L1073.15 1554.5"></path>
<path stroke-linejoin="round" stroke-width="3" style="stroke:#231F20;stroke:color(display-p3 0.1373 0.1216 0.1255);stroke-opacity:1;" stroke="#231F20" d="M1495.94 1651.32L1597.16 1709.73C1624.39 1725.63 1659.17 1752.57 1675.99 1787.98L1682.39 1792.08C1684.44 1793.34 1687.54 1794.7 1687.54 1799.63L1687.41 1888.87C1687.41 1944.25 1686.6 2048.06 1667.81 2060.61"></path>
<path stroke-linejoin="round" stroke-width="3" style="stroke:#231F20;stroke:color(display-p3 0.1373 0.1216 0.1255);stroke-opacity:1;" stroke="#231F20" d="M1381.46 1635.56C1380 1634.88 1377.63 1635.98 1376.51 1636.74C1357.39 1629.55 1326.83 1638.6 1326.83 1653.83C1326.83 1669.05 1352.09 1673.81 1361.45 1673.81C1375.63 1673.81 1395.19 1666.23 1395.19 1654.95C1395.19 1645.71 1389.05 1642.1 1386.24 1641.14C1386.24 1639.86 1385.77 1638.05 1384.52 1637.31L1381.46 1635.56Z"></path>
<path stroke-linejoin="round" stroke-width="3" style="stroke:#231F20;stroke:color(display-p3 0.1373 0.1216 0.1255);stroke-opacity:1;" stroke="#231F20" d="M1390.7 1620.74L1392.04 1595.16C1393.05 1587.8 1402.16 1573.07 1430.45 1573.07C1458.74 1573.07 1467.15 1587.8 1467.82 1595.16L1468.95 1620.18"></path>
<path stroke-linejoin="round" stroke-width="3" style="stroke:#231F20;stroke:color(display-p3 0.1373 0.1216 0.1255);stroke-opacity:1;" stroke="#231F20" d="M1392.18 1607.25C1384.55 1616.64 1394.82 1637.83 1429.19 1637.83C1472.75 1637.83 1472.12 1611.71 1468.12 1607.65"></path>
<path stroke-width="3" style="stroke:#231F20;stroke:color(display-p3 0.1373 0.1216 0.1255);stroke-opacity:1;" stroke="#231F20" d="M1164.01 1596.45L1100 1558.75"></path>
<path stroke-width="3" style="stroke:#231F20;stroke:color(display-p3 0.1373 0.1216 0.1255);stroke-opacity:1;" stroke="#231F20" d="M748.434 1356.28L682.768 1317.6"></path>
<path stroke-width="3" style="stroke:#231F20;stroke:color(display-p3 0.1373 0.1216 0.1255);stroke-opacity:1;" stroke="#231F20" d="M1359.21 858.841L1299.56 803.307C1292.08 796.399 1274.29 782.542 1262.96 782.381"></path>
</svg>
